<svg height="225.388553" viewBox="0 0 1000 508" width="443.678255" xmlns="http://www.w3.org/2000/svg"><g transform="translate(1.666667 -1.333333)"><path d="m446.9593 507.25c-.0224-.4125-.004-9.06462.0405-19.22694.0688-15.64886.34806-18.93966 1.82472-21.5 2.84497-4.93283 7.29251-6.51973 18.27761-6.52151 8.34869-.001 10.04566.29703 13 2.28578 4.97895 3.35165 6.34949 6.90699 6.25941 16.23768-.13922 14.42107-4.59792 18.41283-20.61153 18.45303l-8.75001.02196v5.5 5.5h-5c-2.75 0-5.01832-.3375-5.0407-.75zm27.0407-20.22884c1.11781-.70661 1.5-2.87774 1.5-8.52116 0-8.97994-.46517-9.46937-9-9.46937-8.56938 0-8.93869.41196-9.35262 10.43278l-.35261 8.53659 7.85261-.0153c4.31894-.008 8.52762-.44201 9.35262-.96353zm-110.81533 9.00202c-8.14486-1.95875-10.58801-8.23287-10.00512-25.69359.67608-20.25236 2.02812-21.32959 26.77079-21.32959h17.04966v3.89301c0 2.62743-.51423 4.09034-1.58179 4.5-.86998.33385-7.75498.60699-15.3.60699-9.33638 0-14.10151.3833-14.91821 1.2-.66.66-1.2 2.91-1.2 5v3.8h13.30887c14.99224 0 17.0787.70058 16.52692 5.54931l-.33579 2.95069-14.75.27673-14.75.27674.0153 3.72326c.027 6.57194.25901 6.66939 17.19569 7.22327l15.289.5v4 4l-15 .16024c-8.25.0881-16.4919-.19855-18.31533-.63706zm40.00783-3.27318.3075-4.25 12.79297-.2802c10.53129-.23066 12.89954-.55789 13.39572-1.85092.9611-2.50458-1.6144-3.33718-10.37359-3.35357-11.6039-.0217-15.97976-2.17402-16.98248-8.35302-.98752-6.08539.40157-10.52944 3.97164-12.70625 2.7854-1.69837 5.08966-1.94904 17.94574-1.9523l14.75-.00374v4.47012 4.47013l-12.75.27987c-11.99004.2632-12.75.39909-12.75 2.27988 0 1.84127.83333 2.03968 10.5 2.5 5.89339.28064 11.50813 1.07508 12.79787 1.8108 3.91048 2.23071 5.45347 9.76772 3.20849 15.67247-1.67687 4.4105-6.19501 5.51673-22.53174 5.51673h-14.58962zm96.87858 2.49845c-5.62209-2.86678-7.48608-6.33484-7.9093-14.71575-.44325-8.77772.82509-13.18691 4.92408-17.11775 2.95234-2.83124 3.37528-2.92426 14.72689-3.23923 10.87344-.3017 11.92389-.16243 15.08564 2 5.58417 3.81922 7.26232 8.02826 6.90721 17.32428-.2664 6.97371-.66609 8.47121-3.11564 11.6731-3.6343 4.75053-6.97776 5.82724-18.08918 5.82535-6.68783-.001-10.00991-.46514-12.5297-1.75zm20.70641-8.80515c1.90127-1.3317 2.22251-2.47769 2.22251-7.92858 0-8.46831-1.09978-9.51472-10-9.51472-8.89679 0-10 1.04805-10 9.5 0 4.44589.47245 6.82959 1.57143 7.92857 2.145 2.145 13.15039 2.155 16.20606.0147zm19.22251-4.83971v-15.39641l3.5348-3.10359c3.47476-3.05088 3.71351-3.10359 14.05749-3.10359h10.52271l-.3075 4.25-.3075 4.25-8 .5-8 .5-.28228 12.43643c-.16056 7.07411-.75233 13.00281-1.37244 13.75-.59959.72246-3.06007 1.31357-5.46772 1.31357h-4.37756zm43.71277 14.77584c-.39202-.39202-.71277-6.71276-.71277-14.0461v-13.33333h-4.98095c-4.43562 0-5.04747-.26504-5.58855-2.42091-1.23779-4.93171-.30867-6.0561 5.2715-6.37936l5.18326-.30027.30737-3.69973.30737-3.69973h5 5l.31037 3.75.31036 3.75h4.87225c5.49396 0 6.83589 1.68971 5.05724 6.36792-.87605 2.30417-1.56091 2.63208-5.49725 2.63208h-4.49653l-.27822 13.75-.27822 13.75-4.53723.2961c-2.49548.16286-4.85798-.0246-5.25-.41667zm25.71599-1.80726c-.33514-1.3353-.31339-3.3603.0483-4.5.72868-2.29585 1.21395-2.36463 14.72793-2.08741 9.48985.19467 12.79498-.42557 12.79498-2.40109 0-.91419-2.8067-1.45254-9.79145-1.87807-11.84897-.72187-14.60854-1.67315-17.20435-5.93067-2.52167-4.13592-2.54007-8.38382-.054-12.46111 3.0544-5.00932 4.62343-5.39362 20.78415-5.09064l14.76568.27682.3075 4.25.3075 4.25h-12.99849c-13.12583 0-15.48973.64045-13.08016 3.5438.88918 1.0714 3.515 1.4562 9.93687 1.4562 14.04197 0 18.02678 2.54207 18.02678 11.5 0 5.51097-2.06777 8.97937-6.21521 10.42518-1.69578.59115-9.53251 1.07482-17.41496 1.07482h-14.33173zm-332.19763-69.40816c-.97898-.62137-1.20745-6.15806-1-24.23469l.26887-23.42932h4.5 4.5l.29381 7.25.29381 7.25h11.91238 11.91238l.29381-7.25.29381-7.25 4.40089-.31487c2.84393-.20348 4.69587.15031 5.23469 1 1.38049 2.17699 1.0707 45.20859-.33558 46.61487-1.28089 1.28089-5.61132 1.59337-8.21821.59301-1.32002-.50654-1.58179-2.58042-1.58179-12.53173v-11.92475l-11.75.28173-11.75.28174-.28474 11.46245c-.18948 7.62788-.69128 11.72079-1.5 12.23469-1.58745 1.00874-5.87253.98977-7.48413-.0331zm56.26887-.56652c-4.46861-1.97249-6.67859-5.00231-7.23236-9.91534-.61984-5.49925 1.88419-11.19219 5.81755-13.2262 1.92754-.99677 6.04803-1.45595 13.06515-1.45595 14.48388 0 11.40783-1.8593-3.66658-2.21624l-11.98376-.28376v-4.5-4.5h13c20.82868 0 23.50335 2.23332 23.49503 19.61803-.004 9.2571-.24821 10.68543-2.25 13.18276-1.35802 1.6942-3.82542 3.16639-6.24503 3.72614-5.9138 1.36809-20.51984 1.10674-24-.42944zm21.5-9.0157c0-.23002.25088-1.072.55751-1.87106 1.13836-2.96653-2.35609-4.71073-9.43781-4.71073-7.69477 0-10.39515 1.35198-9.48746 4.75.56613 2.11937 1.11676 2.25 9.48439 2.25 4.88585 0 8.88337-.1882 8.88337-.41821zm18.2455 9.26371c-.83231-.83231-1.23759-4.57955-1.22164-11.2955.0323-13.59663 1.00607-17.31374 5.58013-21.3 3.6787-3.20596 3.86587-3.24995 13.81262-3.24626 16.97941.006 19.58339 3.11488 19.58339 23.37834v12.57982l-2.5.62746c-1.375.3451-3.625.3451-5 0-2.48147-.62281-2.5-.71089-2.5-11.88591 0-14.64722-.63882-15.70345-9.49769-15.70345-4.00928 0-6.68524.46501-7.19329 1.25-.44496.6875-1.03402 6.875-1.30902 13.75l-.5 12.5-4.0045.2955c-2.24878.16595-4.55057-.25057-5.25-.95zm53.93917.21925c-4.39962-1.11323-7.96128-4.60113-9.18061-8.99049-1.48149-5.33307-1.29561-25.59936.24594-26.81551 1.40318-1.10698 4.14765-1.35433 7.5-.67595 2.18648.44245 2.25.80203 2.25 12.73625 0 8.21852.39695 12.6779 1.2 13.48095 1.99454 1.99454 8.56898 1.50018 9.76482-.73426.56935-1.06384 1.03518-7.0907 1.03518-13.39301 0-12.42064.117-12.67273 5.88179-12.67273 4.62228 0 5.11821 1.414 5.11821 14.59301 0 13.36758.0258 13.42216 6.33179 13.39168 5.82997-.0282 6.15121-.73329 6.34153-13.91938.0953-6.60448.41951-12.4065.72043-12.89339.44982-.72783 5.45165-.90248 8.93002-.31181.45308.0769.67808 6.70062.5 14.71929l-.32377 14.57939-3.61225 3.30782c-5.39914 4.94412-16.57136 5.93194-22.26972 1.96903-1.55997-1.08488-2.24774-1.06914-4.01986.092-2.69449 1.7655-12.04875 2.64152-16.4135 1.53712zm53.5281.31468c-.39202-.39202-.71277-11.46128-.71277-24.59836v-23.88559l5.25.30226 5.25.30226.29636 5.63113.29635 5.63112 6.20365-.49265c8.14857-.64711 14.27005 1.09681 18.42113 5.24789l3.3383 3.3383-.27789 14.32211-.2779 14.3221h-4.5-4.5l-.51698-12.11677c-.62478-14.64318-1.05462-15.38914-8.85546-15.36792-8.5579.0233-8.55357.0163-9.12756 14.69665l-.5 12.78804-4.53723.2961c-2.49548.16286-4.85798-.0246-5.25-.41667zm51.60014-.422c-5.18955-1.59901-7.31291-5.22521-7.31291-12.4887 0-5.91579.19519-6.43292 3.5348-9.36514 3.49655-3.07001 3.65407-3.10359 14.55901-3.10359 7.09484 0 10.80394-.35643 10.40619-1-.35524-.57479-5.61038-1-12.35902-1-12.97273 0-14.14098-.46933-14.14098-5.68095 0-4.25901 1.55975-4.64454 16.73902-4.13747 17.88381.59741 20.20611 2.57949 21.03104 17.94994.53715 10.00846-.77551 15.17072-4.4738 17.59393-2.99337 1.96134-22.78794 2.8328-27.98335 1.23198zm21.52458-11.84434c.45938-3.24896-1.2652-4.0798-8.5057-4.09778-8.04698-.02-9.33179.54873-9.33179 4.13061v2.93195l8.75-.28894c8.36574-.27624 8.76482-.39375 9.08749-2.67584zm48.64159 11.97127c-9.50923-2.32324-11.47908-7.48265-11.47908-30.06586 0-10.81439.36911-15.98761 1.2-16.8185.66-.66 2.82-1.2 4.8-1.2s4.14.54 4.8 1.2c.83533.83533 1.20465 6.22938 1.21531 17.75.008 9.1025.44077 17.225.96078 18.05.73872 1.17201 3.96065 1.60933 14.73468 2l13.78923.5v4.5 4.5l-13.5.1612c-7.425.0887-14.85941-.17092-16.52092-.57684zm38.27092-.16446c-1.55795-.90742-1.75-2.8829-1.75-18.00097 0-14.12734.25063-17.07788 1.49111-17.55389 1.254-.48121 1.16551-.98612-.55653-3.17533-2.14098-2.72182-1.94373-6.92688.3947-8.41438 2.05172-1.30512 7.47232-.83087 9.09929.7961 2.33642 2.33641 1.98286 6.89763-.67857 8.75415-1.88889 1.31762-1.96914 1.57793-.5 1.62197 1.59947.0479 1.75 1.59069 1.75 17.93582 0 17.70039-.023 17.88954-2.25 18.48634-3.15693.84603-4.97586.72915-7-.44981zm16.29383-.36708c-.86794-1.04581-1.10991-6.66216-.87244-20.25.28138-16.10051.58712-19.18351 2.12736-21.45169 2.45285-3.61211 6.3071-5.00394 14.37792-5.19208l6.82333-.15905v4 4l-5.42236.5c-7.89757.72824-7.97593 3-.10348 3h6.14084l-.3075 4.25-.3075 4.25-6.25.29772-6.25.29771v13.3453c0 11.24667-.24874 13.44074-1.58179 13.95228-2.81279 1.07937-7.14173.64505-8.37438-.84019zm38.07484.44426c-1.85973-.43901-4.78473-2.20048-6.5-3.91438-3.05221-3.04978-3.12578-3.34647-3.45247-13.92313-.32209-10.42798-.24204-10.91599 2.28273-13.91651 1.43909-1.71026 4.22077-3.63901 6.18151-4.28611 4.72301-1.55873 23.12338-.84692 26.00307 1.00591 3.41064 2.19446 5.36649 6.4655 5.36649 11.71893 0 9.48562-4.37122 12.31821-19.00936 12.31821-6.48447 0-9.88709.35852-9.49064 1 .36008.58262 5.97472 1 13.45203 1 13.95979 0 14.04797.0375 14.04797 5.9748 0 1.64098-.65846 3.0639-1.58179 3.41821-2.24923.86311-23.25665.55844-27.29954-.39593zm18.70088-21.63911c.50541-.90312.70028-2.47812.43306-3.5-.42356-1.61968-1.5354-1.85797-8.66924-1.85797-8.43898 0-10.89632.96808-9.82817 3.87186.97774 2.65796 2.37957 3.09674 9.94511 3.11283 5.64825.012 7.39839-.33864 8.11924-1.62672zm-697.81955-19.85224c0-.49185 4.125621-6.99435 9.168046-14.45 46.264292-68.40566 98.044744-115.2808 163.331954-147.85903 38.60007-19.26139 82.09654-31.92864 129.5-37.71362 18.37787-2.24278 64.2061-3.08105 85.11285-1.55684 57.24638 4.17355 118.71767 17.92217 179.19923 40.07953 6.36969 2.33354 8.66296 3.61689 8.27406 4.63034-1.21432 3.16449-57.75719 96.89014-58.63795 97.19848-.52567.18403-5.79156-2.22517-11.70197-5.35378-5.91042-3.12861-18.84622-9.41069-28.74622-13.96018-145.08977-66.67515-276.58048-68.48517-382-5.25839-30.78557 18.46407-65.115982 48.48777-85.013624 74.34876-8.333299 10.8308-8.486376 11.00928-8.486376 9.89473zm867.32245-29.75573c-33.76856-41.80435-80.87776-90.6862-121.85331-126.43844-114.31429-99.74223-241.91564-167.757266-377.51938-201.228244-31.54173-7.785422-53.01882-11.458547-98.94976-16.9229088-7.42852-.883764-7.44758-.8934968-2-1.021195 14.95583-.3505835 69.92829 3.6011068 96 6.9009528 153.24699 19.396173 301.67876 75.174943 442.5 166.285875 47.60618 30.80105 101.33186 71.58023 144 109.29971 23.34995 20.64181 26.03496 23.13371 25.5 23.66596-.275.2736-13.55 7.34406-29.5 15.71213s-37.379 19.66551-47.62 25.10542c-10.241 5.4399-19.26126 9.89074-20.04503 9.89074s-5.51441-5.0625-10.51252-11.25zm-159.82245-75.53339c-40.65732-39.71607-97.97157-77.19153-156-102.00205-55.62453-23.78273-112.44889-36.64673-173-39.16405-70.81516-2.94404-142.5769 9.56034-215.62871 37.573-9.14578 3.50707-17.04997 6.37649-17.56486 6.37649-.51488 0-11.54089-12.2625-24.50222-27.25-12.96134-14.9875-31.93849-36.925-42.171448-48.75s-18.611539-21.98123-18.61907-22.5694c-.027573-2.153588 45.445028-11.628002 78.523818-16.36078 39.86082-5.703123 52.21016-6.530631 96.96249-6.497289 43.84219.03266 56.01228.832633 91.5 6.014514 121.04824 17.675339 231.8137 70.863405 329 157.981315 20.86329 18.70188 67.18406 66.50415 64.34312 66.40104-.46372-.01683-6.24312-5.30559-12.84312-11.75279z" fill="#cecfd0"></path><path d="m447 488.84439c0-19.14779.001-19.15702 2.63182-22.6061 3.61722-4.74243 7.8015-6.23829 17.44991-6.23829 6.41533 0 8.93761.44493 11.87219 2.09426 5.77276 3.24447 7.04608 6.27597 7.04608 16.77524 0 8.69546-.12432 9.20249-3.08227 12.57141-3.74232 4.26227-7.9424 5.54615-18.16773 5.55351l-7.75.00558v5.5 5.5h-5-5zm27.96482-2.77865c.56935-1.06384 1.03518-4.46842 1.03518-7.56574 0-8.65979-.79279-9.5-8.96376-9.5-9.25474 0-10.03624.86211-10.03624 11.07143v7.92857h8.46482c7.34546 0 8.6017-.25578 9.5-1.93426zm-110.57001 9.98781c-3.93505-.93994-7.94849-3.88796-9.32644-6.8506-1.53546-3.30132-1.36532-30.05782.21094-33.17293.68741-1.3585 2.78791-3.5065 4.66779-4.77336 3.27413-2.20643 4.11516-2.29186 19.98543-2.03001l16.56747.27335v3.5 3.5l-15.20369.5c-9.95556.32741-15.62036.91795-16.41079 1.71079-.66391.66594-1.24725 3.14094-1.29631 5.5l-.08921 4.28921 14.80875.27707 14.80875.27707-.30875 3.72293-.30875 3.72293-14.5.5-14.5.5-.32266 2.81464c-.17746 1.54804.39541 3.91054 1.27305 5.25 1.56408 2.38708 1.8712 2.43536 15.49088 2.43536 7.64233 0 14.60696.27314 15.47694.60699 1.8688.71712 2.12025 5.45455.38179 7.19301-1.34197 1.34197-26.01466 1.54117-31.40519.25355zm39.04015-.36245c-.32126-.83718-.43805-2.79767-.25953-4.35663l.32457-2.83447 13.5-.5c13.38081-.49559 13.72118-.5954 13.15-3.85639-.0825-.47101-4.93163-1.10042-10.77584-1.3987-12.2057-.62294-15.27988-2.09375-16.78594-8.03104-1.30801-5.15648.29431-9.71809 4.38095-12.47208 3.2077-2.16166 4.21841-2.27843 17.46776-2.01811l14.06307.27632v4 4l-12.81557.28037c-12.59615.27556-12.81017.31837-12.5 2.5.29602 2.08213.93505 2.25227 10.31557 2.74654 5.5.2898 10.98942 1.08078 12.19872 1.75774 6.07147 3.39877 7.24808 12.00495 2.38534 17.4473l-2.91594 3.2635-15.57453.35891c-13.24599.30524-15.66185.13133-16.15863-1.16326zm97.67206-.24208c-6.75474-2.93186-8.63995-6.90705-8.54936-18.02731.10855-13.32421 4.86269-17.41759 20.23218-17.42016 16.63175-.003 20.68203 4.05876 20.0526 20.10832-.30059 7.66461-.64794 9.06257-2.84244 11.43976-1.375 1.48947-3.94805 3.32513-5.71788 4.07925-4.32597 1.84327-18.77228 1.73115-23.1751-.17986zm20.8578-9.38328c.56935-1.06384 1.03518-4.46842 1.03518-7.56574 0-8.86507-.66835-9.5-10-9.5-6.81634 0-8.07497.27156-8.96482 1.93426-1.43422 2.67987-1.31259 14.38833.16482 15.86574.72728.72728 4.25885 1.2 8.96482 1.2 6.65339 0 7.91298-.27686 8.8-1.93426zm18.03518-3.87609c0-13.32.21083-15.18797 1.96611-17.41943 3.04312-3.86871 6.732-4.88367 16.5805-4.56196 9.66586.31575 10.41064.84162 9.02289 6.37083-.57395 2.28683-1.01514 2.42091-7.96611 2.42091-4.85679 0-7.72913.44658-8.44867 1.31357-.62011.74719-1.21188 6.67589-1.37244 13.75l-.28228 12.43643-4.75.30479-4.75.30479zm43.57795 13.1529c-.37147-.96804-.59819-7.17863-.50382-13.80131l.17158-12.04124-4.87285-.5-4.87286-.5-.30485-4.19584-.30485-4.19584 5.30485-.30416c5.05128-.28962 5.29051-.42777 5.00478-2.89016-.39021-3.36273 1.84438-5.12966 5.98475-4.73223 3.03257.29109 3.34153.63377 3.62269 4.01796l.30737 3.69973 5.19263.30027 5.19263.30027v4 4l-5.22211.30129-5.22212.30129-.27788 13.69871-.27789 13.69871-4.12332.30131c-3.19225.23327-4.27584-.0961-4.79873-1.45876zm26.61455-2.59255.3075-4.25 13-.5c12.54583-.48253 13.01116-.57861 13.31955-2.75.30758-2.1657.0266-2.25163-7.5-2.29355-15.90526-.08859-20.31955-2.37011-20.31955-10.50213 0-10.99446 2.93545-12.60795 22.2534-12.23176l14.2466.27744v4 4l-13 .5c-12.16667.46795-13 .62821-13 2.5 0 1.84205.83333 2.03949 10.55206 2.5 12.37768.58651 15.24621 1.92579 17.05492 7.96275.96223 3.21161.91759 4.69417-.23345 7.75404-2.3236 6.17692-5.75893 7.27982-22.68103 7.28166l-14.3075.00155zm-274.40386-67.46253c-1.49125-.22707-4.07875-1.69019-5.75-3.25137-2.77498-2.59223-3.03864-3.39596-3.03864-9.263 0-5.38853.36281-6.75493 2.25-8.47382 4.00566-3.64845 6.45566-4.29928 16.18426-4.29928 9.26963 0 12.34171-1.08646 6.91987-2.44725-1.45522-.36524-6.80305-.58022-11.88406-.47774-5.081.10248-9.74036-.12403-10.35413-.50335-1.43009-.88385-1.45563-6.24369-.0339-7.12234.59511-.36779 6.73798-.59581 13.65084-.5067 19.59241.25256 21.76716 2.17489 21.76716 19.24067 0 10.25851-.12341 10.89467-2.59252 13.36378-1.42589 1.42588-4.35089 3.00037-6.5 3.49887-3.87664.89919-15.41237 1.03433-20.61884.24153zm16.89219-8.89967c2.7122-.7274 3.63317-2.93257 2.2804-5.46024-.88405-1.65186-2.1533-1.92756-8.87397-1.92756-5.63585 0-8.18143.40854-9.04743 1.45201-1.51949 1.83087-.48754 5.27685 1.75716 5.86771 2.59614.68337 11.42817.72668 13.88384.0681zm128.42252 8.23673c-.8001-.96406-1.06105-8.21726-.87244-24.25l.26909-22.87453h5 5l.29777 5.67857.29778 5.67857h8.96861c10.06845 0 14.02415 1.60616 17.18584 6.97808 2.47315 4.20204 2.61211 28.61998.16821 29.55779-2.60797 1.00077-6.10583.68866-7.20623-.64301-.5681-.6875-1.1857-6.55471-1.37245-13.03825-.26269-9.12034-.67901-12.00245-1.83953-12.73469-.825-.52054-4.29667-.95333-7.71482-.96175-7.92799-.0195-8.28518.61502-8.28518 14.71895 0 7.1178-.41392 11.27966-1.2 12.06574-1.63252 1.63252-7.2909 1.51835-8.69665-.17547zm52.22956.27817c-5.19544-1.50415-8.33883-6.13591-8.29964-12.22943.0333-5.17315 1.08512-7.25918 5.38185-10.67327 1.30868-1.03985 5.29247-1.6634 12.98634-2.03264 9.85228-.47284 10.78243-.66934 8.28344-1.75-1.61607-.69885-7.25963-1.21736-13.25-1.21736h-10.4349v-4-4h13.54966c20.74695 0 22.45034 1.41631 22.45034 18.66674 0 10.19791-.20528 11.45969-2.25 13.82985-1.2436 1.44153-4.03916 3.02132-6.25 3.53191-5.02542 1.16061-17.97766 1.08711-22.16709-.1258zm20.80777-9.64338c.92065-.92065.93331-1.80151.0536-3.73219-1.0886-2.38929-1.57801-2.52713-8.97284-2.52713-9.74102 0-12.76736 2.31122-8.5494 6.52918 1.33593 1.33593 3.13862 1.59799 8.96781 1.30362 4.01267-.20263 7.83804-.91069 8.50083-1.57348zm49.54455 9.77257c-4.46587-.86409-8.67436-3.7398-10.43199-7.12829-.89546-1.72633-1.17723-7.75727-1-21.4036l.24676-19h4.5 4.5l.5 17.60019c.36488 12.8439.87089 18.04604 1.87244 19.25 1.13903 1.36921 3.46369 1.64981 13.66822 1.64981 6.76267 0 13.00757.27314 13.87755.60699 2.18077.83684 2.18077 7.94918 0 8.78602-2.15219.82587-23.00136.55439-27.73298-.36112zm92.58982.0278c-8.51483-2.10383-11.27836-6.83156-11.26846-19.27754.005-6.50094.42234-8.91281 1.93975-11.21469 3.18705-4.83469 5.43782-5.49336 18.90366-5.53199l12.35-.03547 3.4 3.4c2.99487 2.99487 3.4 4.01961 3.4 8.6s-.40513 5.60513-3.4 8.6l-3.4 3.4h-11.1c-8.78407 0-11.1.28863-11.1 1.38337 0 2.04466 3.26034 2.5878 15.625 2.60298l11.125.01365.64915 3.24576c.46029 2.30145.21811 3.56094-.83242 4.32911-1.74546 1.2763-21.60605 1.64251-26.29168.48479zm17.52495-21.25969c1.80186-1.80186 1.4457-4.59814-.73426-5.76482-1.06384-.56935-4.69342-1.03518-8.06574-1.03518-9.02918 0-12.33543 2.52172-8.42857 6.42857 1.94402 1.94402 15.3666 2.2334 17.22857.37143zm-437.8-2.24521v-23.55479h5 5v7.5 7.5h12 12v-7.5-7.5h5 5v23.55479 23.55479l-4.75-.30479-4.75-.30479-.28174-11.75-.28173-11.75h-11.93653-11.93653l-.28173 11.75-.28174 11.75-4.75.30479-4.75.30479zm97 10.39555c0-14.71422.83128-17.44688 6.34379-20.8538 2.76236-1.70723 5.00437-2.09654 12.0739-2.09654 9.87002 0 13.18681 1.23436 16.75347 6.23491 2.15158 3.01657 2.32884 4.25456 2.32884 16.26509v13l-4.66735.30142-4.66735.30141-.33265-12.50425c-.21462-8.0675-.76369-12.93428-1.54746-13.71622-.66814-.66659-3.598-1.40961-6.51079-1.65116-4.25051-.35249-5.78737-.0417-7.78519 1.57428-2.36429 1.91241-2.50596 2.62024-2.82296 14.10399l-.33375 12.09053h-4.41625-4.41625zm50.8728 11.36595c-5.09416-3.16155-5.8728-5.90877-5.8728-20.72058v-13.59571h4.37928 4.37928l.41599 12.49527c.26812 8.05392.85389 12.93317 1.64799 13.72727 1.61603 1.61603 8.76861 1.58591 10.40019-.0438.87159-.87059 1.34271-5.15122 1.4833-13.47728l.20602-12.20146 4.43976-.30053 4.43975-.30054.35422 12.50109c.23851 8.41753.77307 12.91975 1.63644 13.78276 1.57577 1.57508 8.93122 1.50273 10.54153-.1037.73658-.73481 1.30059-5.84732 1.5089-13.67766l.33265-12.50425 4.66735.30141 4.66735.30142.28105 12.28344c.32141 14.04748-.79315 17.82485-6.25555 21.2008-4.24771 2.62523-15.89129 2.84871-19.42607.37285-2.17563-1.52387-2.54708-1.52387-5.12679 0-3.76552 2.22435-15.49039 2.1993-19.09984-.0408zm216.1272-16.2615c0-12.98504.32432-18.05479 1.15499-18.05479.67387 0 .4363-.79414-.57034-1.90646-1.09791-1.21317-1.60883-3.11577-1.40498-5.23195.25145-2.61039.92631-3.53729 3.1384-4.31052 6.52423-2.28049 11.72222 5.41075 6.13216 9.0735-2.62332 1.71886-2.6328 1.76375-.53666 2.53916 2.0807.7697 2.12704 1.21966 1.86014 18.06282l-.27371 17.27345-4.75.30479-4.75.30479zm17-1.77749c0-21.59012.28018-22.81947 5.85828-25.70401 2.26485-1.1712 10.32122-2.00713 15.95209-1.65519.89257.0558 1.2114 1.27755 1 3.8319-.30959 3.74053-.32293 3.75079-5.28498 4.06396-2.73603.17268-5.62291.84768-6.41527 1.5-1.15283.94908-.15895 1.28594 4.97461 1.68604 6.18443.48201 6.42708.60334 6.74345 3.37182.45594 3.98987-1.1024 5.12095-7.12808 5.17372l-5.2001.0455-.5 13.45446-.5 13.45446-4.75.30479-4.75.30479v-19.83228zm-634.457086-31.2773c.459978-.825 6.139686-8.925 12.621574-18 43.783264-61.29898 98.208272-108.28136 157.835512-136.25147 43.66263-20.4814 89.27319-32.48632 139.5-36.71709 17.6685-1.48828 59.47171-1.24241 79 .46464 51.22857 4.47811 102.40894 15.81029 158.63538 35.12449 10.65054 3.65855 19.54142 6.8049 19.75751 6.99189.21609.187-2.88781 5.86319-6.89755 12.61377-15.44504 26.00236-50.30315 84.29418-50.64996 84.69988-.20034.23435-10.14751-4.34777-22.10482-10.1825-70.49215-34.3976-128.12371-51.96361-193.24056-58.89941-17.36289-1.84938-58.51914-1.55701-76 .5399-56.01669 6.71946-103.08036 24.0786-147.5 54.40445-22.092553 15.08286-47.269436 37.6045-62.675595 56.0656-8.448138 10.12335-9.432772 11.21075-8.281491 9.14585zm856.752356-25.75c-38.18415-45.88708-83.67748-92.26994-126.29527-128.76469-67.48542-57.78957-139.98089-104.68175-216.50739-140.043278-80.00117-36.967112-158.59147-59.785878-238.99261-69.391732-12.79195-1.5283069 21.18426-.3423559 42.95817 1.499469 178.74951 15.120176 354.30566 80.907594 514.54183 192.817971 43.04225 30.06109 93.78827 70.69728 129.69982 103.8605l6.20296 5.72825-6.20139 3.40427c-9.10948 5.00067-90.63147 47.63924-91.08293 47.63924-.21173 0-6.65716-7.5375-14.32319-16.75zm-159.29527-73.88411c-61.05869-56.78725-138.81996-99.94663-218.61026-121.33397-105.43001-28.25991-212.13344-21.1139-323.75052 21.68183-9.27343 3.55558-17.18705 6.08704-17.58582 5.62547-.39878-.46157-19.52466-22.59098-42.50197-49.17647-23.030532-26.64707-41.389789-48.714215-40.914179-49.177325 1.308989-1.274582 39.525559-9.521377 59.862749-12.917846 43.21907-7.217922 71.10534-9.523864 115-9.50946 55.52629.01822 101.78562 5.562305 151 18.097031 96.78155 24.64991 182.70995 70.58533 263.74154 140.99038 18.0133 15.65102 69.16343 67.38315 66.59249 67.35019-.18372-.002-5.95903-5.23578-12.83403-11.62983z" fill="#b8babd"></path><path d="m447.66667 507.33333c-1.1732-1.1732-.58507-33.59413.68591-37.81083 2.01343-6.67996 5.91808-8.52325 18.0453-8.51876 15.75399.006 19.60212 3.45671 19.60212 17.57857 0 6.0458-.44494 8.40155-2.08938 11.06231-3.04465 4.92634-5.25103 5.75261-16.91062 6.33285l-10.5.52253-.2999 5.75-.29991 5.75h-3.78343c-2.08088 0-4.08343-.3-4.45009-.66667zm25.00145-18.9422c3.14953-.84482 4.70524-5.48464 4.03063-12.02106-.72444-7.0191-2.30149-8.29656-10.29376-8.33827-8.15606-.0425-9.70761 1.63212-10.23991 11.05248-.50749 8.9813.27035 9.91975 8.20736 9.90207 3.37016-.008 7.10321-.27536 8.29568-.59522zm67.7789 7.72256c-.24586-.24586-.44702-6.71702-.44702-14.38036v-13.93333l3.4-3.4 3.4-3.4h10.1 10.1v3.5 3.5h-6.56574c-10.47509 0-10.43426-.05665-10.43426 14.47617 0 8.68393-.36605 12.63203-1.22012 13.15987-1.34204.82943-7.62116 1.18935-8.33286.47765zm72.30298.23751c-2.35-.41364-2.75-.96651-2.75-3.80099 0-4.20805 1.07869-4.51875 15.75-4.53656l11.25-.01365v-2.5c0-2.44956-.15636-2.50048-7.75-2.52386-10.18961-.0314-15.24875-1.2904-18-4.47955-3.93831-4.56514-2.39237-14.36655 2.59159-16.43097 1.69986-.70411 8.11254-1.01922 17.18509-.84444l14.47332.27882v3 3l-11 .2466c-14.07973.31565-15.71971.6939-15.31492 3.53231.38725 2.71538 3.28839 3.44027 14.4189 3.60278 7.12602.10403 8.42328.41424 10.75 2.57056 2.17693 2.01752 2.64602 3.33262 2.64602 7.41821 0 6.46947-.61934 7.88133-4.28992 9.77946-3.07933 1.59239-23.87108 2.77304-29.96008 1.70128zm-252.56018-2.37683c-5.37244-3.27549-6.42606-7.28157-6.02591-22.91162.39293-15.34757 1.22557-17.58609 7.60809-20.45394 3.06078-1.3753 6.41263-1.62443 18.728-1.39196l15 .28315v3.5 3.5l-14.5.25647c-13.34924.23611-14.63888.42347-16.25 2.36078-1.00141 1.20416-1.75 3.75656-1.75 5.9668v3.86248l14.75.27674 14.75.27673.31134 3.22292.31134 3.22291-14.81134.27709-14.81134.27708-.30482 4.19518c-.23061 3.17387.19543 4.69543 1.75 6.25 1.88414 1.88414 3.25921 2.05482 16.55482 2.05482h14.5v3.5 3.5l-16.25-.004c-14.53468-.003-16.59942-.21677-19.56018-2.02189zm43.81018-1.47437v-3.5l11.25-.0136c13.21796-.0161 15.75-.51888 15.75-3.12773 0-2.76523-3.86626-3.85399-13.8151-3.89042-11.26895-.04132-14.1849-2.26569-14.1849-10.82072 0-9.02149 2.3248-10.14753 20.95034-10.14753h14.04966v3.46922 3.46922l-12.14307.28078c-10.20876.23605-12.31582.55516-13.22752 2.00326-1.94317 3.0864.77316 4.21167 11.65665 4.82891 11.76367.66716 13.25352 1.15757 15.25093 5.02013 2.85094 5.51311.95777 12.47076-4.00905 14.73379-1.64649.7502-7.99937 1.19469-17.07499 1.19469h-14.45295zm95.29855 1.54048c-5.11063-3.11613-6.54759-6.99894-6.14551-16.60573.27141-6.48462.80343-8.90417 2.44336-11.11217 3.33519-4.49048 5.97416-5.2931 17.4036-5.2931 11.42677 0 14.06908.80306 17.39925 5.28803 2.78801 3.75479 3.52054 16.54535 1.25775 21.96099-2.55908 6.12473-6.40292 7.71402-18.657 7.71402-8.65397 0-11.06285-.34319-13.70145-1.95204zm22.43234-7.3428c1.26206-1.26206 1.63831-3.3197 1.53937-8.41839-.16349-8.42463-1.90993-10.28615-9.63104-10.26564-7.07783.0188-9.21185.75295-10.51732 3.61816-1.44863 3.1794-1.44052 10.57479.0151 13.76954 1.33774 2.93603 3.3354 3.50924 11.14328 3.19746 3.81928-.15251 6.34695-.79748 7.4506-1.90113zm62.04733-4.44768-.27822-13.75-5.25-.30226-5.25-.30226v-3.44774c0-3.3437.11823-3.44774 3.91821-3.44774 5.90998 0 7.08179-.76231 7.08179-4.60699 0-3.34784.0591-3.39301 4.43963-3.39301 4.40841 0 4.44182.0264 4.75 3.75.30439 3.67779.39702 3.75603 4.81037 4.06313 5.42624.37759 6.30978 1.10442 5.45972 4.49134-.56834 2.26445-1.24192 2.63196-5.30536 2.89464l-4.65436.30089-.27822 13.75-.27822 13.75h-4.44356-4.44356zm-307.06396-57.86907c-.39284-.39285-.71426-10.98926-.71426-23.5476v-22.83333h4.45619 4.45619l.29381 7.25.29381 7.25h12.5 12.5l.11233-7 .11234-7 4.65623-.30555 4.65623-.30555-.26856 23.30555-.26857 23.30555-4.21778.30592-4.21778.30593-.28222-11.80593-.28222-11.80592h-12.5-12.5l-.5 11.5-.5 11.5-3.53574.29759c-1.94466.16368-3.85716-.0238-4.25-.41666zm56.66404-.81785c-1.71693-.74725-3.85443-2.40477-4.75-3.68337-3.28467-4.68952-1.29846-15.38031 3.31631-17.85007 1.05815-.5663 6.71149-1.02964 12.56297-1.02964 9.59359 0 10.6061-.17197 10.30357-1.75-.29414-1.53425-1.84427-1.78462-12.57333-2.03078l-12.23782-.28078v-3.96922-3.96922h11.97976c20.43874 0 23.02024 2.15622 23.02024 19.22783 0 11.88244-.96096 14.11177-6.77948 15.72773-5.34754 1.48515-21.09986 1.23628-24.84222-.39248zm21.61092-8.05009c1.75944-2.12.45026-6.1621-2.22828-6.87984-3.48181-.93298-11.34023-.7436-14.19584.3421-2.78775 1.0599-3.51151 4.67834-1.3651 6.82475 1.82517 1.82517 16.22914 1.59277 17.78922-.28701zm18.72504 8.86794c-1.34268-1.34268-.7919-23.25934.6726-26.76439 2.30022-5.50521 6.73572-7.89649 15.59854-8.40955 6.17637-.35755 8.5699-.0549 12.17331 1.53902 6.80429 3.00986 7.96962 6.29234 7.62234 21.47055l-.28105 12.28344h-4-4l-.28354-11.95832c-.35073-14.79215-.82089-15.54168-9.749-15.54168-8.50523 0-8.85475.56848-9.46746 15.39821l-.5 12.10179-3.53574.29759c-1.94466.16368-3.85716-.0238-4.25-.41666zm52.32037-.68737c-1.99421-.68685-4.44704-2.65353-5.77771-4.63256-2.16606-3.22145-2.29477-4.26523-2.03463-16.5l.27771-13.061 4.25-.3075 4.25-.3075v11.835c0 14.15267.9147 16.28 7 16.28 6.07984 0 7-2.13246 7-16.22251v-11.77749h4.5 4.5v11.77749c0 14.03004.93277 16.22251 6.90172 16.22251 6.16897 0 6.98748-1.73907 7.31474-15.54168l.28354-11.95832 4.25-.3075 4.25-.3075-.0147 13.3075c-.016 14.40396-.62848 16.736-5.30859 20.2111-3.65683 2.71529-15.88235 3.01326-19.46637.47444-2.12715-1.50681-2.55037-1.48906-5.96144.25-4.15188 2.11675-11.01537 2.35613-16.21423.56552zm55.19727-22.44356.2681-23.75h4 4l.5 5.9036.5 5.9036 8.5-.18296c9.55498-.20567 13.85144 1.32221 17.42774 6.19752 1.84559 2.51596 2.07005 4.24996 2.07109 16l.00117 13.17824-4.12491.30139-4.12492.30138-.43454-12.18788c-.51964-14.57453-1.39164-15.91489-10.35383-15.91489-4.55258 0-5.61449.37866-7.38922 2.63486-1.82064 2.31457-2.07258 4.01639-2.07258 14v11.36514h-4.5181-4.5181zm49.98067 22.24339c-6.91432-3.00413-8.14934-14.84447-2.08098-19.95066 2.83106-2.38218 3.70785-2.54273 13.88612-2.54273 5.97534 0 11.11086-.39901 11.41226-.88669 1.29478-2.095-2.77567-3.06371-13.99224-3.32995l-11.93773-.28336v-3.5-3.5l12.78535-.28014c19.94627-.43705 22.71465 1.78526 22.71465 18.23409 0 11.18955-1.33247 14.7691-6.11884 16.43763-4.62788 1.61329-22.65861 1.34407-26.66859-.39819zm22.58743-7.69339c.66-.66 1.2-2.24614 1.2-3.52475 0-2.88314-3.25621-4.27525-10-4.27525-7.26426 0-10 1.3383-10 4.89192 0 1.61778.5625 3.16839 1.25 3.4458 2.63645 1.06383 16.36921.64307 17.55-.53772zm48.1416 8.26518c-9.12856-2.81782-9.9416-5.11043-9.9416-28.03306v-18.03212h5 5v17.42857c0 22.51326-.97055 21.39839 19 21.82549l11.5.24594v3.5 3.5l-14 .17746c-7.7.0976-15.15128-.17792-16.5584-.61228zm38.77266.31575c-.39284-.39285-.71426-8.30339-.71426-17.57898 0-14.32998.2336-16.95436 1.55425-17.46114 1.32833-.50973 1.24369-.927-.58238-2.87075-4.32621-4.60504.28408-10.90999 6.27813-8.58585 2.27091.88053 2.75 1.67422 2.75 4.55586 0 2.51223-.58327 3.80172-2.08258 4.60412-1.87149 1.0016-1.91961 1.23373-.47471 2.29026 1.38772 1.01473 1.57018 3.50265 1.33258 18.17063l-.27529 16.99492-3.53574.29759c-1.94466.16368-3.85716-.0238-4.25-.41666zm17 0c-.39284-.39285-.71426-8.98661-.71426-19.09726 0-20.63539.56088-22.89835 6.35708-25.64883 2.02994-.96327 5.97531-1.63484 9.60441-1.63484h6.15924l-.31036 3.75c-.3038 3.67061-.40043 3.75306-4.56425 3.8945-9.10904.30943-10.24025 3.3555-1.24612 3.3555h6v3.95228 3.95229l-6.25.29771-6.25.29772-.5 13.5-.5 13.5-3.53574.29759c-1.94466.16368-3.85716-.0238-4.25-.41666zm36.73064-.43475c-1.68031-.4963-4.15531-2.07233-5.5-3.5023-2.20895-2.34902-2.47754-3.59618-2.78308-12.92289-.37709-11.51075.27075-13.59445 5.152-16.57076 4.66152-2.84233 23.80888-2.84498 28.11875-.004 5.45573 3.59645 7.11062 10.16877 4.0505 16.08639-2.43616 4.71102-6.09388 5.96727-17.37439 5.96727-5.49486 0-10.23725.39901-10.53865.88669-1.31147 2.122 2.79367 3.06548 14.49354 3.33103l12.43643.28239v3.5 3.5l-12.5.17427c-6.875.0959-13.8748-.23179-15.5551-.72809zm20.0551-22.94618v-3.5l-8.34692-.29201c-8.63904-.30223-11.15308.53506-11.15308 3.71445 0 3.39126 2.1812 4.15827 10.9855 3.86306l8.5145-.2855zm164.79527-52.75c-38.18415-45.88708-83.67748-92.26994-126.29527-128.76469-67.48542-57.78957-139.98089-104.68175-216.50739-140.043278-80.00117-36.967112-158.59147-59.785878-238.99261-69.391732-12.79195-1.5283069 21.18426-.3423559 42.95817 1.499469 178.74951 15.120176 354.30566 80.907594 514.54183 192.817971 43.04225 30.06109 93.78827 70.69728 129.69982 103.8605l6.20296 5.72825-6.20139 3.40427c-9.10948 5.00067-90.63147 47.63924-91.08293 47.63924-.21173 0-6.65716-7.5375-14.32319-16.75zm-160.79527-75.90633c-20.77246-19.75382-54.56153-44.84975-85.44915-63.46506-68.11471-41.0513-145.8223-66.24774-221.55085-71.83716-17.85052-1.31752-56.02728-1.33292-73.5-.0296-53.06862 3.95834-110.96001 17.54556-163.24838 38.31473l-13.74839 5.46091-40.25161-46.60206c-45.443688-52.613327-44.173311-51.097072-43.432098-51.838285.788375-.788375 18.48335-4.901401 38.180478-8.874683 32.39236-6.53415 60.571-10.263866 94.80549-12.548427 22.84846-1.524741 81.40896-.656182 102.69451 1.523147 100.95539 10.336352 196.06057 44.547718 280.5 100.901858 39.1423 26.12323 72.87433 54.09232 109.10925 90.46852 16.73844 16.80371 26.51731 27.32257 25.22478 27.13361-.18372-.0269-4.38403-3.90024-9.33403-8.6075z" fill="#f49456"></path><path d="m447.66667 507.33333c-1.1732-1.1732-.58507-33.59413.68591-37.81083 2.01343-6.67996 5.91808-8.52325 18.0453-8.51876 15.75399.006 19.60212 3.45671 19.60212 17.57857 0 6.0458-.44494 8.40155-2.08938 11.06231-3.04465 4.92634-5.25103 5.75261-16.91062 6.33285l-10.5.52253-.2999 5.75-.29991 5.75h-3.78343c-2.08088 0-4.08343-.3-4.45009-.66667zm25.00145-18.9422c3.14953-.84482 4.70524-5.48464 4.03063-12.02106-.72444-7.0191-2.30149-8.29656-10.29376-8.33827-8.15606-.0425-9.70761 1.63212-10.23991 11.05248-.50749 8.9813.27035 9.91975 8.20736 9.90207 3.37016-.008 7.10321-.27536 8.29568-.59522zm67.7789 7.72256c-.24586-.24586-.44702-6.71702-.44702-14.38036v-13.93333l3.4-3.4 3.4-3.4h10.1 10.1v3.5 3.5h-6.56574c-10.47509 0-10.43426-.05665-10.43426 14.47617 0 8.68393-.36605 12.63203-1.22012 13.15987-1.34204.82943-7.62116 1.18935-8.33286.47765zm72.30298.23751c-2.35-.41364-2.75-.96651-2.75-3.80099 0-4.20805 1.07869-4.51875 15.75-4.53656l11.25-.01365v-2.5c0-2.44956-.15636-2.50048-7.75-2.52386-10.18961-.0314-15.24875-1.2904-18-4.47955-3.93831-4.56514-2.39237-14.36655 2.59159-16.43097 1.69986-.70411 8.11254-1.01922 17.18509-.84444l14.47332.27882v3 3l-11 .2466c-14.07973.31565-15.71971.6939-15.31492 3.53231.38725 2.71538 3.28839 3.44027 14.4189 3.60278 7.12602.10403 8.42328.41424 10.75 2.57056 2.17693 2.01752 2.64602 3.33262 2.64602 7.41821 0 6.46947-.61934 7.88133-4.28992 9.77946-3.07933 1.59239-23.87108 2.77304-29.96008 1.70128zm-252.56018-2.37683c-5.37244-3.27549-6.42606-7.28157-6.02591-22.91162.39293-15.34757 1.22557-17.58609 7.60809-20.45394 3.06078-1.3753 6.41263-1.62443 18.728-1.39196l15 .28315v3.5 3.5l-14.5.25647c-13.34924.23611-14.63888.42347-16.25 2.36078-1.00141 1.20416-1.75 3.75656-1.75 5.9668v3.86248l14.75.27674 14.75.27673.31134 3.22292.31134 3.22291-14.81134.27709-14.81134.27708-.30482 4.19518c-.23061 3.17387.19543 4.69543 1.75 6.25 1.88414 1.88414 3.25921 2.05482 16.55482 2.05482h14.5v3.5 3.5l-16.25-.004c-14.53468-.003-16.59942-.21677-19.56018-2.02189zm43.81018-1.47437v-3.5l11.25-.0136c13.21796-.0161 15.75-.51888 15.75-3.12773 0-2.76523-3.86626-3.85399-13.8151-3.89042-11.26895-.04132-14.1849-2.26569-14.1849-10.82072 0-9.02149 2.3248-10.14753 20.95034-10.14753h14.04966v3.46922 3.46922l-12.14307.28078c-10.20876.23605-12.31582.55516-13.22752 2.00326-1.94317 3.0864.77316 4.21167 11.65665 4.82891 11.76367.66716 13.25352 1.15757 15.25093 5.02013 2.85094 5.51311.95777 12.47076-4.00905 14.73379-1.64649.7502-7.99937 1.19469-17.07499 1.19469h-14.45295zm95.29855 1.54048c-5.11063-3.11613-6.54759-6.99894-6.14551-16.60573.27141-6.48462.80343-8.90417 2.44336-11.11217 3.33519-4.49048 5.97416-5.2931 17.4036-5.2931 11.42677 0 14.06908.80306 17.39925 5.28803 2.78801 3.75479 3.52054 16.54535 1.25775 21.96099-2.55908 6.12473-6.40292 7.71402-18.657 7.71402-8.65397 0-11.06285-.34319-13.70145-1.95204zm22.43234-7.3428c1.26206-1.26206 1.63831-3.3197 1.53937-8.41839-.16349-8.42463-1.90993-10.28615-9.63104-10.26564-7.07783.0188-9.21185.75295-10.51732 3.61816-1.44863 3.1794-1.44052 10.57479.0151 13.76954 1.33774 2.93603 3.3354 3.50924 11.14328 3.19746 3.81928-.15251 6.34695-.79748 7.4506-1.90113zm62.04733-4.44768-.27822-13.75-5.25-.30226-5.25-.30226v-3.44774c0-3.3437.11823-3.44774 3.91821-3.44774 5.90998 0 7.08179-.76231 7.08179-4.60699 0-3.34784.0591-3.39301 4.43963-3.39301 4.40841 0 4.44182.0264 4.75 3.75.30439 3.67779.39702 3.75603 4.81037 4.06313 5.42624.37759 6.30978 1.10442 5.45972 4.49134-.56834 2.26445-1.24192 2.63196-5.30536 2.89464l-4.65436.30089-.27822 13.75-.27822 13.75h-4.44356-4.44356zm-307.06396-57.86907c-.39284-.39285-.71426-10.98926-.71426-23.5476v-22.83333h4.45619 4.45619l.29381 7.25.29381 7.25h12.5 12.5l.11233-7 .11234-7 4.65623-.30555 4.65623-.30555-.26856 23.30555-.26857 23.30555-4.21778.30592-4.21778.30593-.28222-11.80593-.28222-11.80592h-12.5-12.5l-.5 11.5-.5 11.5-3.53574.29759c-1.94466.16368-3.85716-.0238-4.25-.41666zm56.66404-.81785c-1.71693-.74725-3.85443-2.40477-4.75-3.68337-3.28467-4.68952-1.29846-15.38031 3.31631-17.85007 1.05815-.5663 6.71149-1.02964 12.56297-1.02964 9.59359 0 10.6061-.17197 10.30357-1.75-.29414-1.53425-1.84427-1.78462-12.57333-2.03078l-12.23782-.28078v-3.96922-3.96922h11.97976c20.43874 0 23.02024 2.15622 23.02024 19.22783 0 11.88244-.96096 14.11177-6.77948 15.72773-5.34754 1.48515-21.09986 1.23628-24.84222-.39248zm21.61092-8.05009c1.75944-2.12.45026-6.1621-2.22828-6.87984-3.48181-.93298-11.34023-.7436-14.19584.3421-2.78775 1.0599-3.51151 4.67834-1.3651 6.82475 1.82517 1.82517 16.22914 1.59277 17.78922-.28701zm18.72504 8.86794c-1.34268-1.34268-.7919-23.25934.6726-26.76439 2.30022-5.50521 6.73572-7.89649 15.59854-8.40955 6.17637-.35755 8.5699-.0549 12.17331 1.53902 6.80429 3.00986 7.96962 6.29234 7.62234 21.47055l-.28105 12.28344h-4-4l-.28354-11.95832c-.35073-14.79215-.82089-15.54168-9.749-15.54168-8.50523 0-8.85475.56848-9.46746 15.39821l-.5 12.10179-3.53574.29759c-1.94466.16368-3.85716-.0238-4.25-.41666zm52.32037-.68737c-1.99421-.68685-4.44704-2.65353-5.77771-4.63256-2.16606-3.22145-2.29477-4.26523-2.03463-16.5l.27771-13.061 4.25-.3075 4.25-.3075v11.835c0 14.15267.9147 16.28 7 16.28 6.07984 0 7-2.13246 7-16.22251v-11.77749h4.5 4.5v11.77749c0 14.03004.93277 16.22251 6.90172 16.22251 6.16897 0 6.98748-1.73907 7.31474-15.54168l.28354-11.95832 4.25-.3075 4.25-.3075-.0147 13.3075c-.016 14.40396-.62848 16.736-5.30859 20.2111-3.65683 2.71529-15.88235 3.01326-19.46637.47444-2.12715-1.50681-2.55037-1.48906-5.96144.25-4.15188 2.11675-11.01537 2.35613-16.21423.56552zm55.19727-22.44356.2681-23.75h4 4l.5 5.9036.5 5.9036 8.5-.18296c9.55498-.20567 13.85144 1.32221 17.42774 6.19752 1.84559 2.51596 2.07005 4.24996 2.07109 16l.00117 13.17824-4.12491.30139-4.12492.30138-.43454-12.18788c-.51964-14.57453-1.39164-15.91489-10.35383-15.91489-4.55258 0-5.61449.37866-7.38922 2.63486-1.82064 2.31457-2.07258 4.01639-2.07258 14v11.36514h-4.5181-4.5181zm49.98067 22.24339c-6.91432-3.00413-8.14934-14.84447-2.08098-19.95066 2.83106-2.38218 3.70785-2.54273 13.88612-2.54273 5.97534 0 11.11086-.39901 11.41226-.88669 1.29478-2.095-2.77567-3.06371-13.99224-3.32995l-11.93773-.28336v-3.5-3.5l12.78535-.28014c19.94627-.43705 22.71465 1.78526 22.71465 18.23409 0 11.18955-1.33247 14.7691-6.11884 16.43763-4.62788 1.61329-22.65861 1.34407-26.66859-.39819zm22.58743-7.69339c.66-.66 1.2-2.24614 1.2-3.52475 0-2.88314-3.25621-4.27525-10-4.27525-7.26426 0-10 1.3383-10 4.89192 0 1.61778.5625 3.16839 1.25 3.4458 2.63645 1.06383 16.36921.64307 17.55-.53772zm48.1416 8.26518c-9.12856-2.81782-9.9416-5.11043-9.9416-28.03306v-18.03212h5 5v17.42857c0 22.51326-.97055 21.39839 19 21.82549l11.5.24594v3.5 3.5l-14 .17746c-7.7.0976-15.15128-.17792-16.5584-.61228zm38.77266.31575c-.39284-.39285-.71426-8.30339-.71426-17.57898 0-14.32998.2336-16.95436 1.55425-17.46114 1.32833-.50973 1.24369-.927-.58238-2.87075-4.32621-4.60504.28408-10.90999 6.27813-8.58585 2.27091.88053 2.75 1.67422 2.75 4.55586 0 2.51223-.58327 3.80172-2.08258 4.60412-1.87149 1.0016-1.91961 1.23373-.47471 2.29026 1.38772 1.01473 1.57018 3.50265 1.33258 18.17063l-.27529 16.99492-3.53574.29759c-1.94466.16368-3.85716-.0238-4.25-.41666zm17 0c-.39284-.39285-.71426-8.98661-.71426-19.09726 0-20.63539.56088-22.89835 6.35708-25.64883 2.02994-.96327 5.97531-1.63484 9.60441-1.63484h6.15924l-.31036 3.75c-.3038 3.67061-.40043 3.75306-4.56425 3.8945-9.10904.30943-10.24025 3.3555-1.24612 3.3555h6v3.95228 3.95229l-6.25.29771-6.25.29772-.5 13.5-.5 13.5-3.53574.29759c-1.94466.16368-3.85716-.0238-4.25-.41666zm36.73064-.43475c-1.68031-.4963-4.15531-2.07233-5.5-3.5023-2.20895-2.34902-2.47754-3.59618-2.78308-12.92289-.37709-11.51075.27075-13.59445 5.152-16.57076 4.66152-2.84233 23.80888-2.84498 28.11875-.004 5.45573 3.59645 7.11062 10.16877 4.0505 16.08639-2.43616 4.71102-6.09388 5.96727-17.37439 5.96727-5.49486 0-10.23725.39901-10.53865.88669-1.31147 2.122 2.79367 3.06548 14.49354 3.33103l12.43643.28239v3.5 3.5l-12.5.17427c-6.875.0959-13.8748-.23179-15.5551-.72809zm20.0551-22.94618v-3.5l-8.34692-.29201c-8.63904-.30223-11.15308.53506-11.15308 3.71445 0 3.39126 2.1812 4.15827 10.9855 3.86306l8.5145-.2855zm164.2879-54.1842c-117.2348-140.71161-257.91399-241.52884-416.33977-298.368376-45.40735-16.291118-96.87297-29.340396-141.44813-35.864639-5.775-.845258-11.85-1.74139-13.5-1.991405-7.8947-1.1962387 26.36258.730453 44 2.47464 150.00381 14.834065 296.63988 64.466648 433.5 146.72874 69.35904 41.68942 142.86252 96.57135 199.22381 148.75197l5.73775 5.31214-13.23078 6.94123c-7.27693 3.81768-28.30578 14.85056-46.73078 24.51751-18.425 9.66694-34.2392 17.85475-35.14267 18.19513-1.23007.46342-5.26624-3.73036-16.06943-16.69694zm-160.2879-74.47213c-20.77246-19.75382-54.56153-44.84975-85.44915-63.46506-68.11471-41.0513-145.8223-66.24774-221.55085-71.83716-17.85052-1.31752-56.02728-1.33292-73.5-.0296-53.06862 3.95834-110.96001 17.54556-163.24838 38.31473l-13.74839 5.46091-40.25161-46.60206c-45.443688-52.613327-44.173311-51.097072-43.432098-51.838285.788375-.788375 18.48335-4.901401 38.180478-8.874683 32.39236-6.53415 60.571-10.263866 94.80549-12.548427 22.84846-1.524741 81.40896-.656182 102.69451 1.523147 100.95539 10.336352 196.06057 44.547718 280.5 100.901858 39.1423 26.12323 72.87433 54.09232 109.10925 90.46852 16.73844 16.80371 26.51731 27.32257 25.22478 27.13361-.18372-.0269-4.38403-3.90024-9.33403-8.6075zm-421.73834-263.0509309c1.24391-.2391932 3.04391-.2301119 4 .020181.95609.2502923-.06166.4459959-2.26166.4348965s-2.98225-.2158842-1.73834-.4550775z" fill="#f27220"></path><path d="m447.66667 507.33333c-1.1732-1.1732-.58507-33.59413.68591-37.81083 2.01343-6.67996 5.91808-8.52325 18.0453-8.51876 15.75399.006 19.60212 3.45671 19.60212 17.57857 0 6.0458-.44494 8.40155-2.08938 11.06231-3.04465 4.92634-5.25103 5.75261-16.91062 6.33285l-10.5.52253-.2999 5.75-.29991 5.75h-3.78343c-2.08088 0-4.08343-.3-4.45009-.66667zm25.00145-18.9422c3.14953-.84482 4.70524-5.48464 4.03063-12.02106-.72444-7.0191-2.30149-8.29656-10.29376-8.33827-8.15606-.0425-9.70761 1.63212-10.23991 11.05248-.50749 8.9813.27035 9.91975 8.20736 9.90207 3.37016-.008 7.10321-.27536 8.29568-.59522zm67.7789 7.72256c-.24586-.24586-.44702-6.71702-.44702-14.38036v-13.93333l3.4-3.4 3.4-3.4h10.1 10.1v3.5 3.5h-6.56574c-10.47509 0-10.43426-.05665-10.43426 14.47617 0 8.68393-.36605 12.63203-1.22012 13.15987-1.34204.82943-7.62116 1.18935-8.33286.47765zm72.30298.23751c-2.35-.41364-2.75-.96651-2.75-3.80099 0-4.20805 1.07869-4.51875 15.75-4.53656l11.25-.01365v-2.5c0-2.44956-.15636-2.50048-7.75-2.52386-10.18961-.0314-15.24875-1.2904-18-4.47955-3.93831-4.56514-2.39237-14.36655 2.59159-16.43097 1.69986-.70411 8.11254-1.01922 17.18509-.84444l14.47332.27882v3 3l-11 .2466c-14.07973.31565-15.71971.6939-15.31492 3.53231.38725 2.71538 3.28839 3.44027 14.4189 3.60278 7.12602.10403 8.42328.41424 10.75 2.57056 2.17693 2.01752 2.64602 3.33262 2.64602 7.41821 0 6.46947-.61934 7.88133-4.28992 9.77946-3.07933 1.59239-23.87108 2.77304-29.96008 1.70128zm-252.56018-2.37683c-5.37244-3.27549-6.42606-7.28157-6.02591-22.91162.39293-15.34757 1.22557-17.58609 7.60809-20.45394 3.06078-1.3753 6.41263-1.62443 18.728-1.39196l15 .28315v3.5 3.5l-14.5.25647c-13.34924.23611-14.63888.42347-16.25 2.36078-1.00141 1.20416-1.75 3.75656-1.75 5.9668v3.86248l14.75.27674 14.75.27673.31134 3.22292.31134 3.22291-14.81134.27709-14.81134.27708-.30482 4.19518c-.23061 3.17387.19543 4.69543 1.75 6.25 1.88414 1.88414 3.25921 2.05482 16.55482 2.05482h14.5v3.5 3.5l-16.25-.004c-14.53468-.003-16.59942-.21677-19.56018-2.02189zm43.81018-1.47437v-3.5l11.25-.0136c13.21796-.0161 15.75-.51888 15.75-3.12773 0-2.76523-3.86626-3.85399-13.8151-3.89042-11.26895-.04132-14.1849-2.26569-14.1849-10.82072 0-9.02149 2.3248-10.14753 20.95034-10.14753h14.04966v3.46922 3.46922l-12.14307.28078c-10.20876.23605-12.31582.55516-13.22752 2.00326-1.94317 3.0864.77316 4.21167 11.65665 4.82891 11.76367.66716 13.25352 1.15757 15.25093 5.02013 2.85094 5.51311.95777 12.47076-4.00905 14.73379-1.64649.7502-7.99937 1.19469-17.07499 1.19469h-14.45295zm95.29855 1.54048c-5.11063-3.11613-6.54759-6.99894-6.14551-16.60573.27141-6.48462.80343-8.90417 2.44336-11.11217 3.33519-4.49048 5.97416-5.2931 17.4036-5.2931 11.42677 0 14.06908.80306 17.39925 5.28803 2.78801 3.75479 3.52054 16.54535 1.25775 21.96099-2.55908 6.12473-6.40292 7.71402-18.657 7.71402-8.65397 0-11.06285-.34319-13.70145-1.95204zm22.43234-7.3428c1.26206-1.26206 1.63831-3.3197 1.53937-8.41839-.16349-8.42463-1.90993-10.28615-9.63104-10.26564-7.07783.0188-9.21185.75295-10.51732 3.61816-1.44863 3.1794-1.44052 10.57479.0151 13.76954 1.33774 2.93603 3.3354 3.50924 11.14328 3.19746 3.81928-.15251 6.34695-.79748 7.4506-1.90113zm62.04733-4.44768-.27822-13.75-5.25-.30226-5.25-.30226v-3.44774c0-3.3437.11823-3.44774 3.91821-3.44774 5.90998 0 7.08179-.76231 7.08179-4.60699 0-3.34784.0591-3.39301 4.43963-3.39301 4.40841 0 4.44182.0264 4.75 3.75.30439 3.67779.39702 3.75603 4.81037 4.06313 5.42624.37759 6.30978 1.10442 5.45972 4.49134-.56834 2.26445-1.24192 2.63196-5.30536 2.89464l-4.65436.30089-.27822 13.75-.27822 13.75h-4.44356-4.44356zm-307.06396-57.86907c-.39284-.39285-.71426-10.98926-.71426-23.5476v-22.83333h4.45619 4.45619l.29381 7.25.29381 7.25h12.5 12.5l.11233-7 .11234-7 4.65623-.30555 4.65623-.30555-.26856 23.30555-.26857 23.30555-4.21778.30592-4.21778.30593-.28222-11.80593-.28222-11.80592h-12.5-12.5l-.5 11.5-.5 11.5-3.53574.29759c-1.94466.16368-3.85716-.0238-4.25-.41666zm56.66404-.81785c-1.71693-.74725-3.85443-2.40477-4.75-3.68337-3.28467-4.68952-1.29846-15.38031 3.31631-17.85007 1.05815-.5663 6.71149-1.02964 12.56297-1.02964 9.59359 0 10.6061-.17197 10.30357-1.75-.29414-1.53425-1.84427-1.78462-12.57333-2.03078l-12.23782-.28078v-3.96922-3.96922h11.97976c20.43874 0 23.02024 2.15622 23.02024 19.22783 0 11.88244-.96096 14.11177-6.77948 15.72773-5.34754 1.48515-21.09986 1.23628-24.84222-.39248zm21.61092-8.05009c1.75944-2.12.45026-6.1621-2.22828-6.87984-3.48181-.93298-11.34023-.7436-14.19584.3421-2.78775 1.0599-3.51151 4.67834-1.3651 6.82475 1.82517 1.82517 16.22914 1.59277 17.78922-.28701zm18.72504 8.86794c-1.34268-1.34268-.7919-23.25934.6726-26.76439 2.30022-5.50521 6.73572-7.89649 15.59854-8.40955 6.17637-.35755 8.5699-.0549 12.17331 1.53902 6.80429 3.00986 7.96962 6.29234 7.62234 21.47055l-.28105 12.28344h-4-4l-.28354-11.95832c-.35073-14.79215-.82089-15.54168-9.749-15.54168-8.50523 0-8.85475.56848-9.46746 15.39821l-.5 12.10179-3.53574.29759c-1.94466.16368-3.85716-.0238-4.25-.41666zm52.32037-.68737c-1.99421-.68685-4.44704-2.65353-5.77771-4.63256-2.16606-3.22145-2.29477-4.26523-2.03463-16.5l.27771-13.061 4.25-.3075 4.25-.3075v11.835c0 14.15267.9147 16.28 7 16.28 6.07984 0 7-2.13246 7-16.22251v-11.77749h4.5 4.5v11.77749c0 14.03004.93277 16.22251 6.90172 16.22251 6.16897 0 6.98748-1.73907 7.31474-15.54168l.28354-11.95832 4.25-.3075 4.25-.3075-.0147 13.3075c-.016 14.40396-.62848 16.736-5.30859 20.2111-3.65683 2.71529-15.88235 3.01326-19.46637.47444-2.12715-1.50681-2.55037-1.48906-5.96144.25-4.15188 2.11675-11.01537 2.35613-16.21423.56552zm55.19727-22.44356.2681-23.75h4 4l.5 5.9036.5 5.9036 8.5-.18296c9.55498-.20567 13.85144 1.32221 17.42774 6.19752 1.84559 2.51596 2.07005 4.24996 2.07109 16l.00117 13.17824-4.12491.30139-4.12492.30138-.43454-12.18788c-.51964-14.57453-1.39164-15.91489-10.35383-15.91489-4.55258 0-5.61449.37866-7.38922 2.63486-1.82064 2.31457-2.07258 4.01639-2.07258 14v11.36514h-4.5181-4.5181zm49.98067 22.24339c-6.91432-3.00413-8.14934-14.84447-2.08098-19.95066 2.83106-2.38218 3.70785-2.54273 13.88612-2.54273 5.97534 0 11.11086-.39901 11.41226-.88669 1.29478-2.095-2.77567-3.06371-13.99224-3.32995l-11.93773-.28336v-3.5-3.5l12.78535-.28014c19.94627-.43705 22.71465 1.78526 22.71465 18.23409 0 11.18955-1.33247 14.7691-6.11884 16.43763-4.62788 1.61329-22.65861 1.34407-26.66859-.39819zm22.58743-7.69339c.66-.66 1.2-2.24614 1.2-3.52475 0-2.88314-3.25621-4.27525-10-4.27525-7.26426 0-10 1.3383-10 4.89192 0 1.61778.5625 3.16839 1.25 3.4458 2.63645 1.06383 16.36921.64307 17.55-.53772zm48.1416 8.26518c-9.12856-2.81782-9.9416-5.11043-9.9416-28.03306v-18.03212h5 5v17.42857c0 22.51326-.97055 21.39839 19 21.82549l11.5.24594v3.5 3.5l-14 .17746c-7.7.0976-15.15128-.17792-16.5584-.61228zm38.77266.31575c-.39284-.39285-.71426-8.30339-.71426-17.57898 0-14.32998.2336-16.95436 1.55425-17.46114 1.32833-.50973 1.24369-.927-.58238-2.87075-4.32621-4.60504.28408-10.90999 6.27813-8.58585 2.27091.88053 2.75 1.67422 2.75 4.55586 0 2.51223-.58327 3.80172-2.08258 4.60412-1.87149 1.0016-1.91961 1.23373-.47471 2.29026 1.38772 1.01473 1.57018 3.50265 1.33258 18.17063l-.27529 16.99492-3.53574.29759c-1.94466.16368-3.85716-.0238-4.25-.41666zm17 0c-.39284-.39285-.71426-8.98661-.71426-19.09726 0-20.63539.56088-22.89835 6.35708-25.64883 2.02994-.96327 5.97531-1.63484 9.60441-1.63484h6.15924l-.31036 3.75c-.3038 3.67061-.40043 3.75306-4.56425 3.8945-9.10904.30943-10.24025 3.3555-1.24612 3.3555h6v3.95228 3.95229l-6.25.29771-6.25.29772-.5 13.5-.5 13.5-3.53574.29759c-1.94466.16368-3.85716-.0238-4.25-.41666zm36.73064-.43475c-1.68031-.4963-4.15531-2.07233-5.5-3.5023-2.20895-2.34902-2.47754-3.59618-2.78308-12.92289-.37709-11.51075.27075-13.59445 5.152-16.57076 4.66152-2.84233 23.80888-2.84498 28.11875-.004 5.45573 3.59645 7.11062 10.16877 4.0505 16.08639-2.43616 4.71102-6.09388 5.96727-17.37439 5.96727-5.49486 0-10.23725.39901-10.53865.88669-1.31147 2.122 2.79367 3.06548 14.49354 3.33103l12.43643.28239v3.5 3.5l-12.5.17427c-6.875.0959-13.8748-.23179-15.5551-.72809zm20.0551-22.94618v-3.5l-8.34692-.29201c-8.63904-.30223-11.15308.53506-11.15308 3.71445 0 3.39126 2.1812 4.15827 10.9855 3.86306l8.5145-.2855zm4-128.65633c-20.77246-19.75382-54.56153-44.84975-85.44915-63.46506-68.11471-41.0513-145.8223-66.24774-221.55085-71.83716-17.85052-1.31752-56.02728-1.33292-73.5-.0296-53.06862 3.95834-110.96001 17.54556-163.24838 38.31473l-13.74839 5.46091-40.25161-46.60206c-45.443688-52.613327-44.173311-51.097072-43.432098-51.838285.788375-.788375 18.48335-4.901401 38.180478-8.874683 32.39236-6.53415 60.571-10.263866 94.80549-12.548427 22.84846-1.524741 81.40896-.656182 102.69451 1.523147 100.95539 10.336352 196.06057 44.547718 280.5 100.901858 39.1423 26.12323 72.87433 54.09232 109.10925 90.46852 16.73844 16.80371 26.51731 27.32257 25.22478 27.13361-.18372-.0269-4.38403-3.90024-9.33403-8.6075z" fill="#585858"></path><path d="m448 488.48531v-19.51468l3.42316-3.73532 3.42316-3.73531h11.65368 11.65368l3.42316 3.73531c3.3919 3.7012 3.42316 3.82152 3.42316 13.17328 0 8.67129-.2083 9.68551-2.56428 12.48543-3.22336 3.83075-7.72516 5.09333-18.18572 5.1004l-8.25.00558v6 6h-4-4zm27.4433-1.70782c.99284-1.41747 1.5567-4.41572 1.5567-8.27749 0-9.03367-1.40442-10.5-10.0567-10.5-9.67894 0-10.9433 1.36719-10.9433 11.83333 0 4.30834.3 8.13334.66667 8.5.36666.36667 4.39115.66667 8.94329.66667 7.41922 0 8.4379-.23024 9.83334-2.22251zm-111.25863 8.24632c-8.18458-1.96986-10.60613-8.03935-9.98377-25.02381.46247-12.621 1.30902-15.12062 6.11292-18.04977 2.809-1.71277 5.10987-1.9432 19.43618-1.94649l16.25-.00374v2.90828 2.90829l-14.95168.34171c-9.65105.22058-15.36571.75635-16.11956 1.51129-1.64638 1.64873-2.79879 8.8113-1.72608 10.72811.75568 1.35034 3.09055 1.60232 14.84701 1.60232h13.95031v3 3h-14.41667c-10.24691 0-14.53125.34377-14.81285 1.18855-.53151 1.59454.72589 9.6402 1.65207 10.57104.40519.40722 7.56338.96541 15.90708 1.24041l15.17037.5v3 3l-14 .16087c-7.7.0885-15.4919-.1982-17.31533-.63706zm39.81533-2.40504v-3.56072l13.25-.27902 13.25-.27903.31306-2.71512c.38143-3.30815-.6173-3.60335-13.53637-4.00099-8.0515-.24782-9.51256-.57328-11.5-2.56167-3.26461-3.26616-3.2656-12.17654-.002-15.44444 2.13133-2.13396 3.22053-2.29811 17.25-2.59983l14.97531-.32204v3.54217 3.54217l-12.75.27987-12.75.27988-.31306 2.71512c-.382 3.31309.61251 3.60459 13.65031 4.00099 8.82902.26844 9.46858.43661 11.75 3.08965 3.33723 3.88084 3.3376 10.50685.0008 14.38848l-2.41195 2.80576-15.58805.33975-15.58805.33975zm97.07108 1.62968c-5.47211-2.7903-7.45452-6.34256-7.89556-14.14801-.30171-5.3395.0655-7.85692 1.67782-11.50181 2.72866-6.16858 6.15639-7.59863 18.21341-7.59863 15.6466 0 19.39492 3.41195 19.41928 17.67667.0115 6.709-.35778 8.68344-2.05711 11-3.45988 4.71655-7.88223 6.32022-17.42892 6.32022-6.11828 0-9.46079-.48992-11.92892-1.74844zm20.92892-7.24845c1.58974-1.58974 2-3.33333 2-8.5 0-9.09648-1.52961-10.5-11.4433-10.5-9.30158 0-10.5567 1.29519-10.5567 10.89377 0 8.97118 1.19668 10.10623 10.65499 10.10623 6.01168 0 7.70807-.36306 9.34501-2zm18.65843 8.25c-.25278-.4125-.51102-6.15-.57386-12.75-.17956-18.85863 1.9595-21.46023 17.66543-21.48526l9.25-.01474v3.5 3.5h-7.34501c-10.35893 0-10.65499.43983-10.65499 15.82874v12.17126h-3.94098c-2.16754 0-4.14781-.3375-4.40059-.75zm44.05583.13093c-.39284-.39285-.71426-6.71426-.71426-14.0476v-13.33333h-5-5v-3.5-3.5h5 5v-4.0575-4.0575l4.25.3075c4.12537.29848 4.2591.41747 4.56037 4.0575l.31036 3.75h5.00299 5.003l-.31336 3.25c-.30017 3.11316-.51218 3.26279-5.03549 3.55365l-4.72213.30366-.27787 13.69634-.27787 13.69635-3.53574.29759c-1.94466.16368-3.85716-.0238-4.25-.41666zm25.66978-.82252c-.30425-.79287-.39751-2.25537-.20724-3.25.30631-1.60117 1.82227-1.86571 13.22874-2.30841 10.5753-.41044 13.07047-.79844 13.93063-2.16618.75902-1.2069.68553-2.10275-.2666-3.25-1.02923-1.24014-3.36013-1.58382-10.74167-1.58382-9.79384 0-14.48343-1.35695-15.70672-4.5448-.34165-.89033-.62118-3.57017-.62118-5.9552 0-9.41843 2.15803-10.5 20.95034-10.5h14.04966v3.5 3.5h-12.37756c-13.5481 0-15.85259.83294-13.65665 4.93608.99716 1.86321 2.02981 2.06392 10.61905 2.06392 13.4725 0 17.41516 2.37712 17.41516 10.5 0 8.81821-3.52081 10.5-21.98172 10.5-11.34041 0-14.18872-.28058-14.63424-1.44159zm-276.38404-70.86485c-7.52129-2.56489-9.25913-14.77339-2.86841-20.15083 2.83594-2.38629 3.69843-2.54273 14.01846-2.54273 9.93374 0 10.96426-.16914 10.66202-1.75-.29108-1.52249-1.95817-1.815-12.82332-2.25l-12.48875-.5v-3.5-3.5l13 .0134c14.33895.0147 16.39371.6244 19.54977 5.80045 1.56714 2.57017 1.94348 5.04516 1.94649 12.80132.004 11.12297-1.45178 14.08402-7.79175 15.84484-4.96042 1.37767-18.85102 1.21819-23.20451-.26642zm19.29852-6.61696c3.23866-1.23133 4.09113-3.83297 2.20111-6.7175-1.40484-2.14406-2.25462-2.3591-9.32268-2.3591-8.56242 0-10.17695.83007-10.17695 5.23222 0 2.00249.65917 3.09718 2.25 3.73662 2.9874 1.20079 12.00382 1.26536 15.04852.10776zm100.20148 6.93936c-2.2-.34508-4.95006-1.2341-6.11124-1.97558-1.80747-1.15419-2.451-1.1102-4.47251.30573-1.67028 1.16991-4.48628 1.65389-9.62298 1.65389-6.51124 0-7.57888-.2842-10.33058-2.75-3.86248-3.46115-4.90824-7.88551-4.93883-20.89496l-.02386-10.14497 4.05195-.38641c2.22858-.21253 4.25358-.1848 4.5.0616.24643.24642.44805 5.94294.44805 12.65893 0 13.88583.49633 14.91033 7.22354 14.91033 6.03872 0 6.77646-1.70331 6.77646-15.64568v-11.80884h4.4005 4.4005l.13458 12.24937c.15464 14.07357.72632 15.27807 7.17114 15.10908 6.60237-.17312 7.34009-1.63873 7.74861-15.39404l.35532-11.96441h3.89468 3.89467v12.09887c0 13.4602-1.13205 17.39817-5.76616 20.05834-3.43864 1.97392-8.57112 2.66855-13.73384 1.85875zm28.21426.36497c-.39284-.39285-.71426-10.98926-.71426-23.5476v-22.83333h4.5 4.5v5.79973 5.79972l9.25-.0497c7.02772-.0378 10.02673.37477 12.48307 1.7172 5.45715 2.98242 6.36377 6.05475 6.04675 20.49107l-.27982 12.74198h-3.5-3.5l-.5-12.33213c-.58728-14.48473-1.03766-15.16787-10-15.16787-8.96355 0-9.4128.68134-10 15.16613l-.5 12.33387-3.53574.29759c-1.94466.16368-3.85716-.0238-4.25-.41666zm51.59865-.48341c-4.85228-1.40388-7.31704-5.21812-7.29067-11.28238.04059-9.33719 3.66592-11.61514 18.48534-11.61514 9.59362 0 10.60609-.17196 10.30348-1.75-.29505-1.5386-1.86275-1.78372-12.97753-2.02916-13.32933-.29434-13.69981-.43824-13.45783-5.22727l.126-2.49357h13.54374c19.71696 0 21.30681 1.39096 21.39809 18.72113.0645 12.25392-.91008 14.1718-8.04257 15.82628-4.94425 1.14688-17.91009 1.0589-22.08805-.14989zm19.12199-6.87277c1.91791-.72919 2.5651-1.68795 2.5651-3.8 0-4.37457-1.62683-5.22632-9.95-5.20944-7.98694.0162-9.30634.42889-10.34156 3.23469-.8979 2.43364.18342 4.76126 2.68066 5.77029 2.92147 1.18046 11.94566 1.18313 15.0458.004zm50.11522 6.86319c-4.42249-1.05219-7.36461-3.30282-8.62485-6.59776-.46487-1.21539-.90217-10.44039-.97179-20.5l-.12658-18.29018h4.08057 4.08058l.25598 17.33885c.32697 22.1485-.50948 21.16115 17.92712 21.16115h12.94958l-.31036 3.75-.31037 3.75-12.5.16385c-6.875.0901-14.27745-.25904-16.44988-.77591zm92.05614-.21702c-6.30308-1.90266-8.04806-5.2308-8.44841-16.11332-.42547-11.56532.86074-14.63548 7.13525-17.03173 3.25838-1.24439 6.30748-1.52805 12.27129-1.14163 4.36459.28281 8.98273.53705 10.26253.56498 1.27981.0279 3.64231 1.36616 5.25 2.97386 2.4607 2.4607 2.92308 3.72365 2.92308 7.98422 0 4.17761-.509 5.63126-2.91571 8.32692l-2.91571 3.26578-11.58429.33605c-8.63119.25039-11.58429.66558-11.58429 1.62868 0 2.54158 5.5287 3.67537 16.34637 3.3522l10.60898-.31693.62922 2.87492c.41755 1.9078.17276 3.16414-.72768 3.73469-1.99395 1.26342-22.71709.92982-27.25063-.43869zm19.565-19.32591c1.00581-.91024 1.82874-2.39524 1.82874-3.3 0-3.22389-2.23295-4.04501-11-4.04501-10.84109 0-13.74298 2.25702-9 7 2.67501 2.67501 15.33111 2.91531 18.17126.34501zm-437.17126-3.34501v-23h3.95794 3.95793l.29207 7.75.29206 7.75h12.5 12.5l.29206-7.75.29207-7.75h3.95793 3.95794v23 23h-3.96826-3.96827l-.28173-11.75-.28174-11.75h-12.5-12.5l-.28174 11.75-.28173 11.75h-3.96827-3.96826zm96.34225 21.44949c-.32725-.85278-.39054-6.36528-.14066-12.25.73325-17.26783 3.42101-20.20216 18.49875-20.19575 15.41921.00655 18.29966 3.54251 18.29966 22.46414v11.53212h-3.91625-3.91625l-.33375-12.08264c-.39669-14.3611-.78337-14.91736-10.36989-14.91736-8.94958 0-9.46386.83299-9.46386 15.32874v11.67126h-4.03138c-2.71933 0-4.22503-.50463-4.62637-1.55051zm267.6262.30051c-.37938-15.03342.14198-32.28681.98413-32.56753 1.56516-.52172 1.26328-2.88566-.45258-3.5441-2.07839-.79755-2.01291-7.22757.0818-8.03138 7.14102-2.74027 11.62293 3.81731 5.66821 8.29328-2.74878 2.06617-2.749 2.06737-.5 2.70004 2.2195.62437 2.25.86185 2.25 17.51632l-.00001 16.88337h-4c-2.51651 0-4.0117-.46359-4.03155-1.25zm17.03155-18.11514c0-18.01957.1427-19.54655 2.05365-21.97593 2.5015-3.18014 7.91841-4.92224 13.94635-4.48519 4.26694.30936 4.51623.49458 4.81336 3.57626l.31336 3.25h-4.90837c-3.48752 0-5.38809.53007-6.56554 1.83115-2.30851 2.55087-1.22085 3.16885 5.57722 3.16885h5.89669l-.31336 3.25c-.31334 3.24984-.31366 3.25001-6.56336 3.54772l-6.25.29771v13.45229 13.45228h-4-4zm58.95821-134.23169c-5.56392-5.73693-20.44346-18.28053-33.0689-27.87741-95.16344-72.33587-207.72503-110.00023-320.38931-107.20583-32.91353.81635-54.60161 3.33601-92.5 10.74638-29.47986 5.76427-71.62951 18.56095-104.71596 31.79186l-5.21596 2.08581-12.33065-14.22199c-48.904556-56.40579-70.73743-81.8921-70.73743-82.57437 0-1.156434 23.8136-6.566636 48.76912-11.079837 68.1291-12.321133 130.82039-14.925624 192.73088-8.006947 99.02413 11.066235 186.03364 42.499344 270.5 97.721004 42.86537 28.02413 92.41418 69.69627 124.21425 104.46816 8.51911 9.31525 10.16199 11.80186 2.74396 4.15317z" fill="#3f3f40"></path><path d="m448.71406 507.38073c-.39273-.39274-.71406-8.52852-.71406-18.07952 0-25.11603 1.36016-27.3678 16.98244-28.11471 15.20975-.72719 20.00724 3.37498 20.01382 17.11316.007 13.61096-3.25376 16.69052-17.6966 16.71565-4.83981.008-9.33508.35575-9.98949.77183-.6544.41608-1.3294 3.22169-1.5 6.23469-.29952 5.29001-.41444 5.48838-3.34611 5.77556-1.66977.16357-3.35727-.0239-3.75-.41666zm26.20405-19.30896c3.01488-1.90828 2.99276-17.24795-.0276-19.16061-.76477-.4843-4.62085-.88743-8.56906-.89585-9.73794-.02077-10.32145.66081-10.32145 12.05612v8.92857l8.75-.0153c4.8125-.008 9.38815-.41924 10.16811-.91292zm-70.53407 6.48664c-.30425-.79287-.39751-2.25537-.20724-3.25.30631-1.60117 1.82227-1.86571 13.22874-2.30841 10.5753-.41044 13.07047-.79844 13.93063-2.16618 1.94391-3.09099-.87524-4.83382-7.81904-4.83382-15.69111 0-19.51713-1.98086-19.51713-10.1047 0-9.6314 2.46075-10.8953 21.21258-10.8953h12.91414l-.31336 3.25-.31336 3.25-12.5.5-12.5.5v2.95492c0 3.70153 1.86552 4.30955 13.63922 4.4454 11.38935.13141 13.36078 1.52957 13.36078 9.47561 0 3.82953-.51268 6.06532-1.65208 7.20472-2.34365 2.34365-8.6354 3.32564-21.6293 3.3758-8.93144.0345-11.39662-.25674-11.83458-1.39804zm98.87212.46679c-6.98409-1.65801-9.25616-5.91455-9.25616-17.34068 0-7.11784.33413-8.83959 2.1679-11.17084 3.17467-4.03593 7.68591-5.51368 16.8321-5.51368 14.84095 0 18.98991 3.84447 18.99626 17.60212.005 9.95138-2.22335 14.14778-8.51876 16.0453-4.4631 1.34524-15.29372 1.54758-20.22134.37778zm19.17241-7.59663c1.14378-1.14378 1.57143-3.57359 1.57143-8.92857 0-9.73492-.79448-10.50468-10.82143-10.48469-4.22321.008-8.27419.39295-9.00218.85451-3.36011 2.13039-3.38504 17.11594-.032 19.24057.74559.47244 4.81098.86588 9.03419.8743 5.66281.0113 8.0911-.39722 9.25-1.55612zm18.57143-5.40339c0-19.56069 1.23375-21.02518 17.71258-21.02518h8.41414l-.31336 3.25-.31336 3.25-7.66114.29046c-4.65611.17654-8.07557.78984-8.71772 1.56358-.58113.70021-1.18361 6.8695-1.33886 13.70953l-.28228 12.43643-3.75.31037-3.75.31036zm46.75 13.1941-2.75-.35212v-12.73358c0-8.57056-.39232-13.1259-1.2-13.93358-.66-.66-3.135-1.2-5.5-1.2-4.09417 0-4.3-.1411-4.3-2.94774 0-2.85096.17238-2.95767 5.25-3.25l5.25-.30226.0461-3.5c.0434-3.2929.26148-3.51814 3.68626-3.80657 3.55712-.29957 3.64733-.21971 3.95391 3.5l.31373 3.80657 5.25.30226c5.07762.29233 5.25.39904 5.25 3.25 0 2.76211-.24675 2.94774-3.91821 2.94774-7.21841 0-7.08179-.28066-7.08179 14.54797 0 7.3337-.3375 13.48912-.75 13.67872s-1.9875.18627-3.5-.007zm23.25-2.58126v-3.57997l13.25-.27902 13.25-.27903v-3-3l-11.42836-.6067c-10.82349-.57459-11.55125-.74956-13.75-3.30576-3.24432-3.77174-3.20251-10.45092.0894-14.28178l2.41103-2.80576 15.15778-.32311 15.15779-.3231-.31881 3.3231-.31883 3.32311-11 .2466c-13.39465.30029-15.5.72815-15.5 3.15001 0 3.11657 2.09198 3.83841 12.50981 4.31653 5.5054.25267 11.00261.99073 12.21604 1.64014 4.99956 2.67568 4.96122 14.57904-.0559 17.36852-1.31141.72913-8.00555 1.36267-16.91991 1.60132l-14.75.39487v-3.57997zm-249.74368 1.33316c-1.23402-.49613-3.14484-2.38011-4.24626-4.18662-1.74743-2.86607-2.00306-5.04281-2.00632-17.08422-.00589-21.73438 1.0564-22.70034 24.96414-22.70034h15.03212v3 3h-13.88922c-16.85261 0-18.42291.72874-18.53875 8.60332l-.07203 4.89668 14.75.27673 14.75.27674v2.94653 2.94653l-14.75.27674-14.75.27673.0576 4.66566c.09418 7.63798.53442 7.83434 17.56484 7.83434h14.87756v3 3l-15.75-.0634c-8.6625-.0349-16.75966-.46931-17.99368-.96543zm-84.25632-92.47118v-22.5h4 4v7.5 7.5h13 13v-7.5-7.5h4 4v22.5 22.5h-4-4v-12.02988-12.02987l-12.75.27987-12.75.27988-.28174 11.75-.28173 11.75h-3.96827-3.96826zm54.07673 19.91111c-2.74599-2.3106-3.07673-3.17764-3.07673-8.06575 0-10.23111 3.07415-12.34536 17.95034-12.34536 8.33887 0 10.04966-.25956 10.04966-1.52475 0-2.47668-4.47243-3.47525-15.5651-3.47525h-10.4349v-3-3h12.95295c7.65864 0 13.98828.47173 15.48597 1.15413 4.08102 1.85943 5.84603 5.60562 6.35142 13.48067.59383 9.25306-.33147 13.99724-3.31116 16.97693-2.26231 2.26231-3.04591 2.38827-14.857 2.38827-11.95519 0-12.59545-.10663-15.54545-2.58889zm24.04234-5.30644c2.01341-1.63036 2.20062-2.29442 1.33916-4.75-.99203-2.82775-1.08799-2.85737-10.17497-3.14147-8.48898-.2654-9.25856-.12786-10.31341 1.84314-1.45475 2.71822-.48666 6.66185 1.78083 7.25447.96213.25145 4.73697.50939 8.38854.57319 5.14777.0899 7.16502-.30977 8.97985-1.77933zm18.89567-4.35467c.016-13.27985.6941-15.72687 5.30784-19.1536 3.74585-2.78213 17.47629-3.54293 22.91663-1.26981 5.74947 2.40228 7.12967 6.12085 7.5804 20.42341l.38604 12.25h-4.10282-4.10283v-11.54545c0-10.92481-.13195-11.67741-2.45455-14-1.96575-1.96576-3.47237-2.45455-7.56574-2.45455-2.81115 0-5.93428.4405-6.94027.97889-2.86966 1.5358-4.03944 6.50813-4.03944 17.17033v9.85078h-3.5-3.5l.0147-12.25zm51.48526 11.30464c-1.1-.45022-2.9-1.81749-4-3.03838-1.75835-1.95159-2.03934-3.89904-2.32558-16.11803l-.32559-13.89823h3.49184 3.49183l.33375 12.09053c.31189 11.29864.48837 12.21559 2.69453 14 1.29844 1.05021 3.61108 1.90947 5.13922 1.90947s3.84078-.85926 5.13922-1.90947c2.20616-1.78441 2.38264-2.70136 2.69453-14l.33375-12.09053h3.3325 3.3325l.33375 12.09053c.31189 11.29864.48837 12.21559 2.69453 14 2.67414 2.16292 5.90201 2.4303 9.50741.78757 3.20162-1.45875 3.60179-3.24252 3.61816-16.1281l.01365-10.75h3.88635 3.88634l.15366 10.49458c.18617 12.7153-.96654 17.52001-5.02196 20.93242-2.66528 2.24268-3.98226 2.573-10.25861 2.573-5.06059 0-7.89791-.4883-9.54635-1.64291-2.17563-1.52387-2.54708-1.52387-5.12679 0-2.97791 1.75909-13.82136 2.19199-17.47264.69755zm56.21764-21.75888.21765-22.79576h3.78235 3.78236l.29041 6 .2904 6 9.2096-.29711c15.73249-.50754 18.70959 3.0353 18.70959 22.26499v11.53212h-4-4v-11.38922c0-14.75639-.86303-16.12515-10.00747-15.8717-9.35243.25922-9.87121 1.02826-10.2119 15.13818l-.28063 11.62274-4 .29576-4 .29576zm47.0852 19.66092c-2.81458-2.81458-3.0089-3.45831-2.58542-8.56492.35549-4.28679 1.05778-6.1221 3.14032-8.20669 2.54963-2.55215 3.25074-2.70171 14.16234-3.02112 9.16458-.26828 11.47992-.62622 11.47992-1.77475 0-2.39023-4.58783-3.3892-15.5651-3.3892h-10.4349v-3-3h13.04966c19.56818 0 20.95034 1.22661 20.95034 18.59251 0 9.81312-.16022 10.65862-2.45455 12.95294-2.35666 2.35666-2.97785 2.45455-15.57692 2.45455h-13.12238zm25.31623-4.85201c2.01445-1.63121 2.20073-2.29314 1.3367-4.75l-1.00393-2.85467h-9.36694c-10.30779 0-11.95746.88729-10.73147 5.77203.76516 3.04867 1.98825 3.45826 10.78579 3.61197 5.14777.0899 7.16502-.30977 8.97985-1.77933zm44.26158 5.98574c-4.66575-2.84507-5.38065-6.32582-5.38065-26.19748v-17.80863l3.75.20785 3.75.20785.51373 17c.28256 9.35.88113 17.75606 1.33018 18.68012 1.3493 2.77669 6.34842 3.81988 18.30531 3.81988h11.35078v3 3l-15.25-.004c-13.22427-.003-15.66436-.2564-18.36935-1.90585zm42.61935-14.98342c0-14.73812.20931-16.97333 1.64088-17.52268.90248-.34631 2.47748-.36413 3.5-.0396 1.71573.54456 1.85912 1.89602 1.85912 17.52268v16.93261h-3.5-3.5zm17-1.54189c0-10.1392.43067-19.56764.95704-20.9521 1.4248-3.74752 5.94807-5.613 13.60993-5.613 6.42519 0 6.64448.0814 6.06332 2.25-.33164 1.2375-.60913 2.5875-.61664 3-.008.4125-1.84323.75-4.07939.75-4.70694 0-7.93426 1.43796-7.93426 3.53518 0 1.13018 1.42783 1.46482 6.25 1.46482h6.25v3c0 2.97297-.05 3-5.55 3-3.0525 0-6.09.54-6.75 1.2-.80833.80833-1.2 5.37778-1.2 14v12.8h-3.5-3.5zm32.4 15.0349c-2.38202-2.38202-3.44677-4.40301-3.55622-6.75-.0859-1.8425-.26647-4.7-.40121-6.35-.52947-6.48401.80533-11.90174 3.62765-14.72407 2.71623-2.71623 3.02597-2.77593 14.40252-2.77593 16.03507 0 19.52726 2.17212 19.52726 12.14584 0 6.13992-4.04903 9.48604-12.58488 10.40015-3.59615.38512-8.49374.47982-10.88354.21046-5.91744-.66698-7.79434.64455-4.6708 3.26387 2.06248 1.72952 3.86313 1.97968 14.25 1.97968h11.88922v3 3h-14.1-14.1zm24.4-15.8c1.90147-1.90147 1.45796-6.59158-.73426-7.76482-3.24673-1.73759-16.11537-1.30024-18.237.61981-2.24438 2.03113-2.34522 4.68567-.25731 6.77358 1.96205 1.96205 17.34088 2.25912 19.22857.37143zm-73.6-19c-.66-.66-1.2-2.145-1.2-3.3 0-4.53532 5.26069-6.0794 8.50368-2.49594 1.49857 1.65591 1.61608 2.43767.67642 4.5-1.25047 2.74449-5.79374 3.4823-7.9801 1.29594z" fill="#050505"></path></g></svg>