
<svg id="master-artboard" viewBox="0 0 696.6614990234375 935.4446411132812" version="1.1" xmlns="http://www.w3.org/2000/svg" x="0px" y="0px" style="enable-background:new 0 0 336 235.2" width="696.6614990234375px" height="935.4446411132812px"><rect id="ee-background" x="0" y="0" width="696.6614990234375" height="935.4446411132812" style="fill:rgb(71, 145, 255);fill-opacity:0;pointer-events:none"></rect><defs><style id="ee-google-fonts">@import url(https://fonts.googleapis.com/css?family=Audiowide:400);</style><linearGradient id="id0" gradientUnits="userSpaceOnUse" x1="1500" y1="1888.46" x2="1500" y2="257.437">
   <stop offset="0" style="stop-opacity:1;stop-color:#3E8A9B"></stop>
   <stop offset="0.4" style="stop-opacity:1;stop-color:#51ABB2"></stop>
   <stop offset="1" style="stop-opacity:1;stop-color:#64CCC9"></stop>
  </linearGradient><linearGradient id="id1" gradientUnits="userSpaceOnUse" x1="2081.08" y1="1552.71" x2="2081.08" y2="593.185">
   <stop offset="0" style="stop-opacity:1;stop-color:#3E8A9B"></stop>
   <stop offset="0.388235" style="stop-opacity:1;stop-color:#51ABB2"></stop>
   <stop offset="1" style="stop-opacity:1;stop-color:#64CCC9"></stop>
  </linearGradient><linearGradient id="id2" gradientUnits="userSpaceOnUse" x1="918.92" y1="1552.71" x2="918.925" y2="593.185">
   <stop offset="0" style="stop-opacity:1;stop-color:#3E8A9B"></stop>
   <stop offset="0.380392" style="stop-opacity:1;stop-color:#51ABB2"></stop>
   <stop offset="1" style="stop-opacity:1;stop-color:#64CCC9"></stop>
  </linearGradient></defs>





















































































































































<g transform="matrix(0.3266667127609253, 0, 0, 0.3266667127609253, -141.66924953460693, -20.686429977416992)"><g id="Layer_x0020_1">
  
  <g id="_2969708876000">
   <path d="M 467 698 L 467 2302 L 1500 2900 L 2533 2302 L 2533 698 L 1500 100 Z" class="fil0" style="fill:black"></path>
   <path d="M 580 2211 L 1500 2743 L 2420 2211 L 2420 789 L 2296 717 L 2296 2139 L 1500 2598 L 704 2139 L 704 717 L 580 789 Z" class="fil1" style="fill:white"></path>
   <g>
    <g>
     <path class="fil2" d="M1575 2183c0,2 0,3 2,3 0,0 1,-1 2,-1l291 -189c5,-4 10,-5 17,-5l64 0c10,0 16,6 16,16l0 122c0,15 -3,23 -16,31l-78 47c-1,1 -2,1 -2,1 -1,0 -2,-1 -2,-4l0 -142c0,-2 -1,-3 -2,-3 -1,0 -1,0 -2,1l-213 138c-6,4 -11,5 -16,5l-141 0c-10,0 -17,-6 -17,-16l0 -176c0,-1 -1,-3 -1,-3 -1,0 -2,1 -3,1l-140 85c-2,0 -2,1 -2,2 0,1 0,1 1,2l101 100c1,1 2,3 2,4 0,1 -2,1 -3,1l-91 0c-7,0 -13,-1 -17,-5l-60 -60c-1,-1 -1,-1 -2,-1 -1,0 -1,0 -2,0l-102 61c-6,4 -10,5 -16,5l-94 0c-10,0 -16,-6 -16,-16l0 -120c0,-15 3,-23 16,-31l78 -47c1,-1 2,-1 2,-1 2,0 2,1 2,4l0 160c0,2 1,3 2,3 0,0 1,-1 2,-1l264 -159c6,-4 10,-5 17,-5l142 0c10,0 17,7 17,17l0 176 0 0z" style="fill:white;fill-rule:nonzero"></path>
    </g>
   </g>
   <g>
    <path class="fil3" d="M1133 1429l0 -712 -214 -124 -125 72 0 816 125 72 214 -124zm-214 -691l90 51 0 568 -90 51 0 -670z" style="fill:url('#id2')"></path>
    <path d="M 1223 417 L 1223 1728 L 1500 1888 L 1777 1728 L 1777 417 L 1652 345 L 1652 1656 L 1562 1708 L 1562 294 L 1500 257 L 1438 294 L 1438 1708 L 1348 1656 L 1348 345 Z" class="fil4" style="fill:url('#id0')"></path>
    <path d="M 1867 717 L 1867 1429 L 2081 1553 L 2206 1481 L 2206 911 L 2035 1010 L 2035 1154 L 2081 1128 L 2081 1408 L 1991 1357 L 1991 789 L 2081 738 L 2081 879 L 2206 807 L 2206 665 L 2081 593 Z" class="fil5" style="fill:url('#id1')"></path>
   </g>
  </g>
  <path d="M 0 0 L 3000 0 L 3000 3000 L 0 3000 Z" class="fil6" style="fill:none"></path>
 </g></g></svg>