


<svg width="572.50793mm" height="584.60315mm" viewBox="0 0 572.50794 584.60315" version="1.1" id="svg5" xmlns:xlink="http://www.w3.org/1999/xlink" xmlns="http://www.w3.org/2000/svg">
  
  <defs id="defs2">
    <linearGradient xlink:href="#linearGradient17441" id="linearGradient17443" x1="76.185059" y1="260.77216" x2="89.664564" y2="260.77216" gradientUnits="userSpaceOnUse" gradientTransform="matrix(0.29249993,0,0,3.905,236.33131,-1100.7093)"></linearGradient>
    <linearGradient xlink:href="#linearGradient17441" id="linearGradient17814" gradientUnits="userSpaceOnUse" gradientTransform="matrix(0.42215708,1.3941373e-8,0,4.271564,341.11474,-1430.2344)" x1="76.185059" y1="260.77216" x2="89.664564" y2="260.77216"></linearGradient>
  </defs>
  <g id="layer1" transform="translate(282.23502,282.92374)">
    <g id="g13159" style="display:inline;opacity:1">
      <path style="opacity:1;fill:#000000;fill-opacity:1;stroke-width:0.671958" d="M -156.9602,190.40371 V 172.9269 155.83134 l 1.834,-0.69729 1.83401,-0.69728 6.0615,-0.0676 c 10.06097,-0.8891 16.64445,3.27274 15.64753,13.64792 -0.49173,3.19823 -2.51518,8.34594 -6.02372,7.92633 0,0 5.19633,9.52697 7.09885,13.46112 l -0.57158,0.95284 -1.57238,0.19031 c -1.9818,0.0171 -3.959,-0.0776 -5.93761,-0.17077 -1.96993,-4.01429 -4.1666,-8.39042 -6.08235,-12.4307 -1.42504,0.30494 -2.79632,0.14552 -4.22475,0.008 v 10.76027 c -1.76145,2.64862 -2.07878,1.68922 -8.0635,1.68922 z m 17.4709,-22.59276 c 0.77827,-7.49523 -3.44487,-6.57069 -9.4074,-6.57069 -0.0626,3.28184 0.0639,6.55943 0.17036,9.83863 5.51318,0.24205 6.75754,-0.16651 9.23704,-3.26796 z m 53.194888,2.69887 c -0.296681,-9.49747 4.442492,-16.11574 14.155971,-16.18929 11.775966,-0.37267 15.299938,6.89625 15.299938,17.76004 0.533675,10.3091 -3.643845,18.74856 -14.75746,18.71112 -12.554521,0.60728 -15.157048,-9.79636 -14.698449,-20.28187 z m 21.384925,1.81774 c -0.06441,-5.60962 0.0094,-11.0873 -6.824127,-11.0873 -5.682104,-0.23575 -6.318678,4.39147 -6.509536,9.03873 -0.474839,5.75515 -0.533142,14.4861 7.135774,13.6217 6.175358,-0.40945 6.197889,-6.38127 6.197889,-11.57313 z m 51.768042,14.11111 -0.0099,-14.90306 -0.0099,-14.90306 2.181067,-2.18106 6.1659906,0.0239 -0.014984,28.87308 c 0,0 11.9187549,0.26976 15.6456544,-0.63243 0.05483,2.06895 -0.0013,4.15195 0.200468,6.21031 -0.747795,1.77591 -2.6925527,1.59639 -21.564825,1.50108 -3.617306,-2.40931 -2.593571,-3.98877 -2.593571,-3.98877 z m 67.868497,0.67196 c 0.103962,-1.93228 -0.498482,-4.8193 0.807984,-5.35846 3.312587,1.18936 15.29844,5.0122 15.29844,-1.29507 0.11701,-3.43244 -5.035691,-4.88233 -7.599573,-6.09096 -11.493346,-4.70334 -11.268876,-15.74797 -0.153294,-19.44555 6.021937,0 9.073098,-0.33493 13.607459,-0.92173 0,2.55763 0.125026,5.2547 -0.193697,6.44419 -3.103742,2.91026 -10.96543,-1.36561 -13.125091,4.26239 1.625916,4.96382 14.75875,4.62389 15.67005,13.63191 0.03453,8.77156 -3.785258,12.45346 -13.91752,12.42847 -4.392485,0 -8.930532,-0.81268 -10.394758,-3.65519 z m 77.926508,3.26846 0.0674,-29.19964 c 0,0 -6.79539,0.0604 -9.92342,0.0604 0,-2.67898 -0.97142,-5.13114 1.09318,-6.49126 7.92886,0 18.89976,-0.22197 26.90569,-0.22834 -0.23217,2.18361 0.76694,4.33993 -0.80635,5.91322 -1.82791,1.63437 -4.34702,1.07352 -9.07324,1.07352 l 0.20462,27.71876 c -1.46794,2.10124 -5.19724,1.15334 -8.46788,1.15334 z m 62.49206,-1.7535 v -16.02922 -16.02921 l 3.02451,-1.98174 c 6.57836,-0.0661 17.73181,0.43975 19.9257,-0.96072 1.42434,-0.82226 1.24027,0.41348 1.24027,3.57508 0.27191,2.22792 -0.68634,2.61454 -2.11187,4.04009 l -13.91981,0.10088 -0.0953,3.97925 -0.0953,3.3597 14.34701,0.002 c 0,0 1.23909,6.96805 -1.62034,7.06337 l -12.39069,0.0375 c 0,0 -0.17339,5.05636 -0.30774,7.6322 h 8.09703 c 0,0 5.56962,0.23589 8.16443,-0.64028 l -0.0674,3.24584 c 0,2.89837 0.76739,3.05582 -2.16924,3.94358 -3.22276,0.97425 -11.19479,0.61866 -17.65352,0.77682 -1.78756,-0.25592 -4.36772,-1.31863 -4.36772,-2.11484 z m 67.86772,0.76973 c -0.13976,-11.33044 0.21246,-22.66918 -0.008,-33.99856 3.9827,-0.69263 7.65822,-1.25172 12.06145,-1.43712 7.62932,0.55555 12.96669,2.40405 14.12353,8.96013 0.30415,7.32017 -0.64806,10.27639 -5.37992,13.54563 1.73159,4.4814 3.87539,8.77024 5.97515,13.08488 -0.41535,1.4895 -1.92105,1.01523 -4.72426,1.321 -1.79331,0.0303 -2.8241,-0.46362 -3.80724,-1.3388 -1.80921,-3.86073 -3.61841,-7.72148 -5.42761,-11.58222 -1.51928,0.30049 -2.98805,0.13873 -4.50875,-0.004 l -0.10029,5.99971 -0.1956,5.57077 c -3.91763,1.61015 -4.54864,1.89403 -8.00833,-0.12103 z m 17.76944,-23.41365 c 0,-5.62825 -3.94874,-4.84951 -9.36997,-4.40582 l -0.0935,9.60231 c 7.99506,0.55391 9.46351,-1.6798 9.46351,-5.19649 z" id="path13161"></path>
      <path d="m 90.546722,283.96838 -4e-6,-57.71814 c 0,0 -16.343029,-0.11317 -11.288214,-0.0458 -2.898094,0 -4.750653,2.98713 -4.683255,3.52631 -0.134795,-3.23508 8e-6,57.23195 8e-6,57.23195 1e-6,8.62236 5.947148,14.56662 14.57855,14.56662 h 12.282103 c 2.6345,0 4.78042,-2.13976 4.78042,-4.77425 v -8.4973 H 94.822531 c -2.358542,0 -4.275809,-1.92385 -4.275809,-4.28939 M 45.885748,271.208 59.071152,254.90307 c 0,0 -8.834087,-5.23414 -25.009495,7.03221 l -1.598012,1.66586 V 226.45243 H 21.273006 c -2.621746,0 -4.758211,2.13647 -4.758211,4.77055 v 70.30637 h 11.190638 c 2.625035,0 4.758212,-2.13976 4.758212,-4.77425 v -18.70507 l 9.063221,11.12812 7.711016,9.48682 c 1.553718,1.94975 3.595184,2.85739 5.698749,2.85739 h 15.61121 L 60.451138,289.13621 Z" style="display:inline;fill:#000000;fill-opacity:1;fill-rule:nonzero;stroke:none;stroke-width:0.411254" id="path802"></path>
      <rect style="display:inline;fill:url(#linearGradient17814);fill-opacity:1;stroke-width:1.64098" id="rect17375-4" width="5.6904693" height="14.394644" x="373.27686" y="-323.52679" transform="matrix(-0.72106262,0.6928699,-1,0,0,0)"></rect>
      <path d="m 108.87797,251.23537 -0.007,-10.60049 -0.98948,1.04541 c -0.0263,0.0296 -3.02436,3.08646 -11.632733,3.08646 H 90.546718 74.575249 55.565439 c -6.418856,0 -9.44034,2.61476 -11.754057,5.44007 l -9.749725,11.91909 c 0,0 4.821254,-3.50724 11.305911,-3.50724 h 50.881193 c 5.570439,0 9.388109,-1.09436 11.354319,-3.24398 1.39909,-1.53644 1.27818,-4.12575 1.27489,-4.13932" style="display:inline;fill:#ff0a07;fill-opacity:1;fill-rule:nonzero;stroke:none;stroke-width:0.411254" id="path14674"></path>
      <rect style="display:inline;fill:url(#linearGradient17443);fill-opacity:1;stroke-width:1.306" id="rect17375" width="3.9427547" height="13.159368" x="258.61545" y="-88.973747" transform="rotate(90)"></rect>
    </g>
    <g id="g1196" style="display:inline;opacity:1" transform="matrix(0.75121912,0,0,0.75121912,-10.302158,-144.47311)">
      <path style="display:inline;opacity:1;fill:#ff0a07;fill-opacity:1;stroke-width:0.894366" d="m -198.21381,348.9646 0.10591,-0.67078 -1.45739,-203.46831 -99.83031,72.20894 38.23261,-117.469208 -100.82575,-73.606423 124.06863,0.831001 23.50185,-70.588919 -103.72898,-140.502151 441.6938,0.89437 c 94.83419,6.6754 170.23423,93.095903 166.82697,187.816899 0,64.737813 -39.76478,110.871001 -56.56024,128.286711 L 395.09228,349.42788 202.54773,349.63537 78.159632,183.06324 c 0,0 -72.6275565,-0.37008 -108.785682,-0.22716 v 166.79937 l -167.69367,-8e-5 z M 133.24909,0.20173871 c 0,-14.15511571 -10.82677,-27.44972271 -29.63007,-27.44972271 l -281.36832,-8.6e-5 17.62233,53.807605 263.51905,0.117642 c 20.25815,-0.26959 29.85701,-12.865642 29.85701,-26.47543829 z" id="path1200"></path>
      <path style="display:inline;fill:#cc0507;fill-opacity:1;stroke-width:0.894366" d="m 78.159632,183.06324 c 54.046078,0 90.766768,3.27844 155.966278,-50.50479 l 12.95988,17.62484 c -57.82708,53.51364 -113.02255,52.12073 -155.213233,52.12073 z" id="path1198"></path>
      <path style="display:inline;opacity:1;fill:#ffffff;fill-opacity:1;stroke-width:0.894366" d="m -259.92543,162.17366 23.24259,-71.585237 -60.88125,-44.93252 75.27213,-0.0312 23.55524,-71.623092 23.56655,71.542152 74.9916,0.90151 -60.40937,43.94879 22.81553,71.914427 -61.27073,-44.26117 z" id="path8096"></path>
    </g>
  </g>
</svg>
